<svg width="33" height="33" viewBox="0 0 33 33" fill="none" xmlns="http://www.w3.org/2000/svg">
<path d="M10.6661 3.26929V7.26929" stroke="#343A40" stroke-width="2.30471" stroke-miterlimit="10" stroke-linecap="round" stroke-linejoin="round"/>
<path d="M21.3341 3.26929V7.26929" stroke="#343A40" stroke-width="2.30471" stroke-miterlimit="10" stroke-linecap="round" stroke-linejoin="round"/>
<path d="M4.66614 12.7224H27.3328" stroke="#343A40" stroke-width="2.30471" stroke-miterlimit="10" stroke-linecap="round" stroke-linejoin="round"/>
<path d="M28.0001 15.268V11.268C28.0001 7.26798 26.0001 4.60132 21.3335 4.60132H10.6668C6.00012 4.60132 4.00012 7.26798 4.00012 11.268V22.6013C4.00012 26.6013 6.00012 29.268 10.6668 29.268H14.6668" stroke="#343A40" stroke-width="2.30471" stroke-miterlimit="10" stroke-linecap="round" stroke-linejoin="round"/>
<path d="M15.9934 18.8695H16.0054" stroke="#343A40" stroke-width="3.07295" stroke-linecap="round" stroke-linejoin="round"/>
<path d="M11.0599 18.8695H11.0718" stroke="#343A40" stroke-width="3.07295" stroke-linecap="round" stroke-linejoin="round"/>
<path d="M11.0599 22.8695H11.0718" stroke="#343A40" stroke-width="3.07295" stroke-linecap="round" stroke-linejoin="round"/>
<path d="M31.4958 22.6847V26.6411C31.4958 29.0073 30.1437 30.0213 28.1156 30.0213H21.3628C21.0171 30.0213 20.6867 29.9906 20.3794 29.9215C20.1874 29.8907 20.003 29.837 19.834 29.7755C18.6816 29.3453 17.9825 28.3466 17.9825 26.6411V22.6847C17.9825 20.3185 19.3346 19.3044 21.3628 19.3044H28.1156C29.8364 19.3044 31.0733 20.0343 31.4036 21.7013C31.4574 22.0086 31.4958 22.3236 31.4958 22.6847Z" stroke="#343A40" stroke-width="1.53647" stroke-miterlimit="10" stroke-linecap="round" stroke-linejoin="round"/>
<path d="M24.7353 26.6928C25.8554 26.6928 26.7635 25.7847 26.7635 24.6646C26.7635 23.5445 25.8554 22.6365 24.7353 22.6365C23.6152 22.6365 22.7072 23.5445 22.7072 24.6646C22.7072 25.7847 23.6152 26.6928 24.7353 26.6928Z" stroke="#343A40" stroke-width="1.53647" stroke-miterlimit="10" stroke-linecap="round" stroke-linejoin="round"/>
<path d="M20.3419 22.9763V26.3566" stroke="#343A40" stroke-width="1.53647" stroke-miterlimit="10" stroke-linecap="round" stroke-linejoin="round"/>
<path d="M29.131 22.9763V26.3566" stroke="#343A40" stroke-width="1.53647" stroke-miterlimit="10" stroke-linecap="round" stroke-linejoin="round"/>
</svg>
