<svg width="33" height="33" viewBox="0 0 33 33" fill="none" xmlns="http://www.w3.org/2000/svg">
<path d="M29.8331 20.6013C29.8331 25.7613 25.6597 29.9347 20.4997 29.9347L21.8997 27.6013" stroke="#343A40" stroke-width="2" stroke-linecap="round" stroke-linejoin="round"/>
<path d="M3.16638 12.6014C3.16638 7.4414 7.33972 3.26807 12.4997 3.26807L11.0997 5.6014" stroke="#343A40" stroke-width="2" stroke-linecap="round" stroke-linejoin="round"/>
<path d="M18.7654 6.53467L24.072 9.60132L29.3253 6.54801" stroke="#343A40" stroke-width="2" stroke-linecap="round" stroke-linejoin="round"/>
<path d="M24.0726 15.0279V9.58789" stroke="#343A40" stroke-width="2" stroke-linecap="round" stroke-linejoin="round"/>
<path d="M22.8192 3.54807L19.6192 5.32134C18.8992 5.72134 18.2992 6.73466 18.2992 7.56133V10.9481C18.2992 11.7747 18.8858 12.788 19.6192 13.188L22.8192 14.9614C23.4992 15.3481 24.6192 15.3481 25.3125 14.9614L28.5125 13.188C29.2325 12.788 29.8325 11.7747 29.8325 10.9481V7.56133C29.8325 6.73466 29.2458 5.72134 28.5125 5.32134L25.3125 3.54807C24.6325 3.17473 23.5125 3.17473 22.8192 3.54807Z" stroke="#343A40" stroke-width="2" stroke-linecap="round" stroke-linejoin="round"/>
<path d="M3.63254 21.2012L8.92587 24.2678L14.1925 21.2145" stroke="#343A40" stroke-width="2" stroke-linecap="round" stroke-linejoin="round"/>
<path d="M8.92551 29.6944V24.2544" stroke="#343A40" stroke-width="2" stroke-linecap="round" stroke-linejoin="round"/>
<path d="M7.68638 18.2146L4.48639 19.9878C3.76639 20.3878 3.16638 21.4012 3.16638 22.2278V25.6146C3.16638 26.4412 3.75306 27.4545 4.48639 27.8545L7.68638 29.6279C8.36638 30.0146 9.48637 30.0146 10.1797 29.6279L13.3797 27.8545C14.0997 27.4545 14.6997 26.4412 14.6997 25.6146V22.2278C14.6997 21.4012 14.1131 20.3878 13.3797 19.9878L10.1797 18.2146C9.48637 17.8412 8.36638 17.8412 7.68638 18.2146Z" stroke="#343A40" stroke-width="2" stroke-linecap="round" stroke-linejoin="round"/>
</svg>
