<svg width="351" height="86" viewBox="0 0 351 86" fill="none" xmlns="http://www.w3.org/2000/svg">
<path d="M138.063 36.6294C138.055 38.2784 137.474 39.7475 136.353 40.9806C133.873 43.7034 131.386 46.4204 128.899 49.1373C127.702 50.4471 126.22 51.0902 124.427 51.0843C119.871 51.0666 115.319 51.0784 110.764 51.0784C110.518 51.0784 110.266 51.0843 110.028 51.0312C109.35 50.8807 109.03 50.2199 109.379 49.624C109.581 49.2789 109.889 48.9898 110.177 48.7007C114.943 43.904 119.711 39.1133 124.477 34.3166C124.925 33.8652 125.372 33.4139 125.823 32.9625L125.849 32.936C126.087 32.697 126.336 32.4699 126.549 32.2133L137.124 21.3131C137.714 20.7083 137.853 19.7938 137.471 19.0445C137.37 18.8498 137.263 18.664 137.148 18.4958C137.758 19.3454 138.063 20.3366 138.066 21.437C138.081 26.5021 138.087 31.5643 138.063 36.6294Z" fill="url(#paint0_linear_1_49123)"/>
<path d="M137.124 21.3132L126.549 32.2133C126.57 32.1897 126.591 32.1632 126.611 32.1366C127.744 30.7147 126.988 28.7884 125.183 28.5141C124.78 28.4521 124.365 28.4787 123.956 28.4787C117.678 28.4787 110.503 28.4639 104.222 28.4875C103.117 28.4934 102.139 28.2397 101.182 27.694C96.1668 24.8325 91.1342 22.0005 86.1075 19.1597C85.8585 19.0181 85.6066 18.8794 85.3665 18.726C84.8093 18.372 84.6463 17.8617 84.8123 17.2422C84.9694 16.6581 85.3932 16.3631 85.9682 16.2952C86.3327 16.251 86.7062 16.2746 87.0737 16.2746C94.4596 16.2746 102.744 16.2746 110.129 16.2746C117.515 16.2746 125.064 16.2805 132.53 16.2716H132.539C133.988 16.2716 135.287 16.6492 136.374 17.6286C136.668 17.8941 136.923 18.1773 137.139 18.4782C137.139 18.4841 137.145 18.4871 137.148 18.493C137.263 18.6641 137.37 18.847 137.471 19.0417C137.853 19.7939 137.711 20.7055 137.124 21.3102V21.3132Z" fill="url(#paint1_linear_1_49123)"/>
<path d="M84.7729 49.2435C84.7818 47.5945 85.3627 46.1254 86.483 44.8923C88.9638 42.1695 91.4504 39.4525 93.9371 36.7356C95.1345 35.4258 96.6164 34.7827 98.4095 34.7886C102.965 34.8063 107.517 34.7945 112.073 34.7945C112.319 34.7945 112.571 34.7886 112.808 34.8417C113.487 34.9922 113.807 35.653 113.457 36.2489C113.255 36.594 112.947 36.8831 112.66 37.1722C107.894 41.9689 103.125 46.7596 98.3592 51.5563C97.9116 52.0076 97.4641 52.459 97.0136 52.9103L96.9869 52.9369C96.7498 53.1758 96.5008 53.403 96.2874 53.6596L85.7124 64.5598C85.1226 65.1645 84.9833 66.079 85.3657 66.8283C85.4664 67.023 85.5731 67.2089 85.6887 67.377C85.0782 66.5274 84.7729 65.5362 84.7699 64.4359C84.7551 59.3708 84.7492 54.3086 84.7729 49.2435Z" fill="url(#paint2_linear_1_49123)"/>
<path d="M85.7095 64.5569L96.2844 53.6567C96.2637 53.6803 96.243 53.7069 96.2222 53.7334C95.09 55.1553 95.8458 57.0817 97.6508 57.356C98.0539 57.418 98.4688 57.3914 98.8778 57.3914C105.155 57.3914 112.331 57.4062 118.611 57.3826C119.717 57.3767 120.695 57.6304 121.652 58.1761C126.667 61.0376 131.699 63.8696 136.726 66.7104C136.975 66.852 137.227 66.9906 137.467 67.144C138.024 67.498 138.187 68.0084 138.021 68.6279C137.864 69.212 137.44 69.507 136.865 69.5748C136.501 69.6191 136.127 69.5955 135.76 69.5955C128.374 69.5955 120.09 69.5955 112.704 69.5955C105.318 69.5955 97.7693 69.5896 90.3034 69.5984H90.2945C88.8452 69.5984 87.547 69.2208 86.4593 68.2414C86.1659 67.9759 85.911 67.6927 85.6946 67.3918C85.6946 67.3859 85.6887 67.383 85.6857 67.3771C85.5702 67.206 85.4635 67.0231 85.3627 66.8284C84.9804 66.0762 85.1226 65.1646 85.7095 64.5599V64.5569Z" fill="url(#paint3_linear_1_49123)"/>
<path d="M183.3 68.8701L179.017 64.5878C178.802 64.3732 178.806 64.0257 179.025 63.8151L180.074 62.8074C180.671 62.1962 181.118 61.5299 181.419 60.8062C181.529 60.5405 181.587 60.2564 181.587 59.9682V59.8925C181.587 58.8766 180.763 58.0529 179.747 58.0529H173.863C169.885 58.0529 166.482 56.6302 163.656 53.7869C160.829 50.9783 159.417 47.5504 159.417 43.4991V42.013C159.525 38.1252 160.937 34.822 163.656 32.1034C166.484 29.2601 169.885 27.8374 173.863 27.8374H188.335C189.531 27.8374 190.5 28.8063 190.5 30.0021V35.7275C190.5 36.3121 190.265 36.8702 189.845 37.279L182.697 44.237C182.353 44.5702 181.779 44.3269 181.779 43.8486V38.8039C181.779 37.6081 180.81 36.6392 179.614 36.6392H173.865C172.334 36.6392 171.02 37.1706 169.922 38.2315C168.806 39.2944 168.203 40.5904 168.113 42.1193V43.82C168.203 45.3858 168.806 46.6919 169.922 47.7344C171.02 48.8137 172.334 49.3554 173.865 49.3554H188.337C189.533 49.3554 190.502 50.3242 190.502 51.52V58.6722C190.502 62.4783 189.242 65.7549 186.726 68.5022L186.374 68.8578C185.53 69.7102 184.154 69.7143 183.306 68.866L183.3 68.8701Z" fill="#343A40"/>
<path d="M198.951 68.8254L194.729 64.5124C194.492 64.2712 194.537 63.8767 194.815 63.6846C195.181 63.4311 195.527 63.1429 195.852 62.8179C196.373 62.2844 196.772 61.708 197.047 61.0886C197.227 60.6859 197.311 60.2485 197.311 59.807V28.3896C197.311 28.0911 197.552 27.8479 197.853 27.8479H203.898C205.094 27.8479 206.063 28.8168 206.063 30.0126V43.5096C206.063 45.1305 206.629 46.5062 207.764 47.6407C208.808 48.6852 210.059 49.2616 211.517 49.3679H212.76V58.0634H211.464C209.804 58.0491 208.248 57.7629 206.799 57.211C206.443 57.0761 206.063 57.3357 206.063 57.7159V58.6868C206.063 62.5522 204.781 65.8717 202.215 68.6455L202.083 68.7886C201.24 69.6921 199.815 69.7085 198.953 68.8275L198.951 68.8254Z" fill="#343A40"/>
<path d="M212 49.3621H214.213C215.798 49.3621 217.139 48.8123 218.237 47.7146C219.406 46.5454 219.993 45.1493 219.993 43.5283V28.3818C219.993 28.0833 220.234 27.8401 220.534 27.8401H226.497C227.693 27.8401 228.662 28.809 228.662 30.0048V43.5018C228.662 45.1227 229.257 46.4984 230.445 47.6328C231.453 48.6774 232.685 49.2538 234.145 49.3601H235.415V58.0556H234.388C231.099 58.0556 228.2 57.0703 225.698 55.0978C224.917 54.4825 223.817 54.4764 223.032 55.0876C220.481 57.0662 217.544 58.0556 214.216 58.0556H212.002V49.3601L212 49.3621Z" fill="#343A40"/>
<path d="M258.132 22.6397V16.81C258.132 16.5116 258.374 16.2683 258.674 16.2683H264.752C265.948 16.2683 266.917 17.2372 266.917 18.433V22.6417C266.917 22.9402 266.675 23.1834 266.375 23.1834H258.674C258.376 23.1834 258.132 22.9422 258.132 22.6417V22.6397Z" fill="#343A40"/>
<path d="M234.628 49.3623H237.14C238.563 49.2539 239.804 48.6775 240.867 47.635C242.036 46.5006 242.623 45.1229 242.623 43.504V28.384C242.623 28.0855 242.864 27.8423 243.165 27.8423H249.128C250.324 27.8423 251.293 28.8112 251.293 30.007V43.5305C251.293 47.5451 249.88 50.9751 247.053 53.8184C244.207 56.6453 240.832 58.0578 236.926 58.0578H234.63V49.3623H234.628Z" fill="#343A40"/>
<path d="M227.891 23.1672H213.637C213.338 23.1672 213.095 22.926 213.095 22.6256V16.8224C213.095 16.524 213.336 16.2808 213.637 16.2808H226.499C227.695 16.2808 228.664 17.2497 228.664 18.4454V22.3966C228.664 22.8218 228.319 23.1672 227.893 23.1672H227.891Z" fill="#343A40"/>
<path d="M250.206 69.6001H235.72C235.421 69.6001 235.178 69.3589 235.178 69.0584V63.2553C235.178 62.9569 235.419 62.7136 235.72 62.7136H248.583C249.778 62.7136 250.747 63.6825 250.747 64.8783V69.0584C250.747 69.3569 250.506 69.6001 250.206 69.6001Z" fill="#343A40"/>
<path d="M259.786 68.948L255.552 64.6227C255.315 64.3795 255.358 63.985 255.638 63.7929C256.006 63.5394 256.351 63.2491 256.678 62.9221C257.2 62.3865 257.6 61.8081 257.876 61.1887C258.056 60.786 258.14 60.3465 258.14 59.905V28.4018C258.14 28.1013 258.383 27.8601 258.682 27.8601H264.743C265.941 27.8601 266.912 28.831 266.912 30.0289V58.7808C266.912 62.6747 265.614 66.0168 263.018 68.807L262.922 68.9112C262.077 69.8167 260.648 69.8331 259.784 68.9501L259.786 68.948Z" fill="#343A40"/>
<defs>
<linearGradient id="paint0_linear_1_49123" x1="116.33" y1="27.7706" x2="136.795" y2="48.0031" gradientUnits="userSpaceOnUse">
<stop stop-color="#FF6000"/>
<stop offset="1" stop-color="#FF6000"/>
</linearGradient>
<linearGradient id="paint1_linear_1_49123" x1="116.282" y1="23.1038" x2="136.265" y2="41.3955" gradientUnits="userSpaceOnUse">
<stop stop-color="#FF6000"/>
<stop offset="0.16" stop-color="#FC5F00"/>
<stop offset="0.24" stop-color="#F45C00"/>
<stop offset="0.31" stop-color="#E75700"/>
<stop offset="0.36" stop-color="#D45000"/>
<stop offset="0.41" stop-color="#BC4700"/>
<stop offset="0.46" stop-color="#9D3C00"/>
<stop offset="0.5" stop-color="#7A2F00"/>
<stop offset="0.53" stop-color="#5A2300"/>
</linearGradient>
<linearGradient id="paint2_linear_1_49123" x1="106.507" y1="58.1023" x2="86.0414" y2="37.8698" gradientUnits="userSpaceOnUse">
<stop stop-color="#FF6000"/>
<stop offset="1" stop-color="#FF6000"/>
</linearGradient>
<linearGradient id="paint3_linear_1_49123" x1="106.551" y1="62.7663" x2="86.5684" y2="44.4775" gradientUnits="userSpaceOnUse">
<stop stop-color="#FF6000"/>
<stop offset="0.16" stop-color="#FC5F00"/>
<stop offset="0.24" stop-color="#F45C00"/>
<stop offset="0.31" stop-color="#E75700"/>
<stop offset="0.36" stop-color="#D45000"/>
<stop offset="0.41" stop-color="#BC4700"/>
<stop offset="0.46" stop-color="#9D3C00"/>
<stop offset="0.5" stop-color="#7A2F00"/>
<stop offset="0.53" stop-color="#5A2300"/>
</linearGradient>
</defs>
</svg>
