<svg width="38" height="33" viewBox="0 0 38 33" fill="none" xmlns="http://www.w3.org/2000/svg">
<path d="M19 19.2681H20.5365C22.2266 19.2681 23.6094 18.0681 23.6094 16.6014V3.26807H9.78116C7.47645 3.26807 5.46369 4.37472 4.41888 6.00138" stroke="#343A40" stroke-width="2" stroke-linecap="round" stroke-linejoin="round"/>
<path d="M3.63531 23.2681C3.63531 25.4814 5.69419 27.2681 8.24473 27.2681H9.78121C9.78121 25.8014 11.164 24.6014 12.8542 24.6014C14.5443 24.6014 15.9271 25.8014 15.9271 27.2681H22.073C22.073 25.8014 23.4558 24.6014 25.1459 24.6014C26.8361 24.6014 28.2189 25.8014 28.2189 27.2681H29.7554C32.3059 27.2681 34.3648 25.4814 34.3648 23.2681V19.2681H29.7554C28.9103 19.2681 28.2189 18.6681 28.2189 17.9347V13.9347C28.2189 13.2014 28.9103 12.6014 29.7554 12.6014H31.7374L29.1101 8.61475C28.5569 7.78808 27.5429 7.26807 26.4366 7.26807H23.6095V16.6014C23.6095 18.0681 22.2266 19.2681 20.5365 19.2681H19" stroke="#343A40" stroke-width="2" stroke-linecap="round" stroke-linejoin="round"/>
<path d="M12.8541 29.9347C14.5513 29.9347 15.9271 28.7407 15.9271 27.268C15.9271 25.7952 14.5513 24.6013 12.8541 24.6013C11.157 24.6013 9.78119 25.7952 9.78119 27.268C9.78119 28.7407 11.157 29.9347 12.8541 29.9347Z" stroke="#343A40" stroke-width="2" stroke-linecap="round" stroke-linejoin="round"/>
<path d="M25.146 29.9347C26.8431 29.9347 28.219 28.7407 28.219 27.268C28.219 25.7952 26.8431 24.6013 25.146 24.6013C23.4489 24.6013 22.0731 25.7952 22.0731 27.268C22.0731 28.7407 23.4489 29.9347 25.146 29.9347Z" stroke="#343A40" stroke-width="2" stroke-linecap="round" stroke-linejoin="round"/>
<path d="M34.3648 16.6013V19.268H29.7553C28.9103 19.268 28.2189 18.668 28.2189 17.9347V13.9347C28.2189 13.2013 28.9103 12.6013 29.7553 12.6013H31.7374L34.3648 16.6013Z" stroke="#343A40" stroke-width="2" stroke-linecap="round" stroke-linejoin="round"/>
<path d="M3.63531 11.2681H12.8542" stroke="#343A40" stroke-width="2" stroke-linecap="round" stroke-linejoin="round"/>
<path d="M3.63531 15.2681H9.78121" stroke="#343A40" stroke-width="2" stroke-linecap="round" stroke-linejoin="round"/>
<path d="M3.63531 19.2681H6.70826" stroke="#343A40" stroke-width="2" stroke-linecap="round" stroke-linejoin="round"/>
</svg>
