<svg width="24" height="24" viewBox="0 0 24 24" fill="none" xmlns="http://www.w3.org/2000/svg">
<mask id="mask0_1_49151" style="mask-type:alpha" maskUnits="userSpaceOnUse" x="2" y="1" width="21" height="21">
<path d="M7.98407 1.96134C6.92006 2.01156 6.19333 2.18199 5.55828 2.43082C4.90089 2.6871 4.34361 3.03056 3.78925 3.5872C3.23423 4.14416 2.89338 4.70242 2.63905 5.36047C2.39281 5.99714 2.22594 6.72421 2.17896 7.78889C2.13231 8.85552 2.12161 9.19572 2.12681 11.9112C2.13199 14.6264 2.14397 14.9672 2.19484 16.0342C2.2457 17.0979 2.41549 17.8243 2.66433 18.4597C2.92093 19.1171 3.26404 19.674 3.82099 20.2287C4.37763 20.7834 4.93621 21.124 5.59457 21.3786C6.23059 21.6245 6.95796 21.7921 8.02232 21.8387C9.08893 21.8857 9.42944 21.8961 12.1442 21.8909C14.8603 21.8857 15.2009 21.8737 16.2675 21.8232C17.3315 21.7723 18.0576 21.6019 18.6933 21.3537C19.3507 21.0964 19.9079 20.7539 20.4623 20.197C21.0167 19.6403 21.3575 19.0818 21.6119 18.4234C21.8581 17.7874 22.0256 17.06 22.0719 15.9963C22.1186 14.929 22.1296 14.5881 22.1244 11.873C22.1192 9.15748 22.1069 8.81728 22.0564 7.75099C22.0059 6.6863 21.8354 5.96021 21.5869 5.32451C21.33 4.66711 20.9872 4.11046 20.4306 3.55545C19.8739 3.00107 19.3154 2.65957 18.657 2.40588C18.0207 2.15963 17.2936 1.99179 16.2292 1.94578C15.1626 1.89848 14.8221 1.88812 12.1063 1.8933C9.39121 1.89848 9.0507 1.91015 7.98407 1.96134ZM8.10073 20.0389C7.1258 19.9964 6.59639 19.8344 6.24356 19.6987C5.77634 19.5179 5.44295 19.3011 5.09205 18.9528C4.74181 18.6032 4.5244 18.2708 4.34199 17.8045C4.20493 17.4517 4.04002 16.9229 3.99434 15.948C3.94476 14.894 3.93343 14.5778 3.92857 11.9076C3.92338 9.23817 3.93309 8.92193 3.97911 7.86698C4.0209 6.89269 4.18389 6.36262 4.31931 6.0101C4.50009 5.54224 4.7162 5.20948 5.06516 4.85859C5.41475 4.50769 5.74717 4.29093 6.21373 4.10852C6.56625 3.97081 7.09503 3.80719 8.06962 3.76086C9.12424 3.71096 9.44013 3.70027 12.1096 3.69509C14.7797 3.6899 15.0959 3.6993 16.1508 3.74564C17.1251 3.78807 17.6552 3.94943 18.0074 4.08584C18.4749 4.26663 18.8083 4.48209 19.1589 4.8317C19.5094 5.1813 19.7268 5.51308 19.9092 5.98062C20.0469 6.33216 20.2106 6.86158 20.2566 7.83587C20.3068 8.89051 20.3181 9.20673 20.323 11.8762C20.3282 14.5463 20.3185 14.8626 20.2721 15.9169C20.2297 16.8918 20.068 17.4215 19.9319 17.7747C19.7511 18.2416 19.535 18.575 19.1857 18.9259C18.8365 19.2755 18.5041 19.4936 18.0372 19.676C17.6853 19.8133 17.1559 19.9773 16.1819 20.0236C15.1273 20.0732 14.8114 20.0845 12.141 20.0894C9.47156 20.0946 9.15567 20.0845 8.10073 20.0389ZM16.2529 6.54666C16.2542 7.20893 16.7927 7.74515 17.4549 7.74386C18.1175 7.74256 18.6537 7.20439 18.6528 6.54212C18.6515 5.87985 18.113 5.34331 17.4504 5.3446C16.7878 5.3459 16.2516 5.88439 16.2529 6.54666ZM6.99103 11.9018C6.99653 14.7378 9.29985 17.0318 12.1352 17.0263C14.9708 17.0208 17.266 14.7181 17.2605 11.882C17.255 9.04701 14.9514 6.75175 12.1154 6.75726C9.28007 6.76277 6.98551 9.06645 6.99103 11.9018ZM8.79214 11.8982C8.78889 10.0576 10.2787 8.56229 12.119 8.55905C13.9596 8.55549 15.4552 10.0446 15.4588 11.8856C15.4623 13.7266 13.9726 15.2216 12.1316 15.2251C10.2913 15.2287 8.7957 13.7392 8.79214 11.8982Z" fill="#000008"/>
</mask>
<g mask="url(#mask0_1_49151)">
<rect x="1.29358" y="1.06006" width="21.775" height="21.775" fill="url(#paint0_radial_1_49151)"/>
<g filter="url(#filter0_f_1_49151)">
<ellipse cx="5.36377" cy="0.230084" rx="12.5625" ry="8.79375" transform="rotate(-14.9317 5.36377 0.230084)" fill="#7334FF"/>
</g>
<g filter="url(#filter1_f_1_49151)">
<circle cx="22.3652" cy="1.20199" r="11.8646" fill="#B202F5"/>
</g>
<g filter="url(#filter2_f_1_49151)">
<circle cx="5.47209" cy="20.6038" r="6.7" fill="#FFB401"/>
</g>
</g>
<defs>
<filter id="filter0_f_1_49151" x="-16.1989" y="-18.0775" width="43.1254" height="36.6149" filterUnits="userSpaceOnUse" color-interpolation-filters="sRGB">
<feFlood flood-opacity="0" result="BackgroundImageFix"/>
<feBlend mode="normal" in="SourceGraphic" in2="BackgroundImageFix" result="shape"/>
<feGaussianBlur stdDeviation="4.60625" result="effect1_foregroundBlur_1_49151"/>
</filter>
<filter id="filter1_f_1_49151" x="-0.666057" y="-21.8293" width="46.0625" height="46.0626" filterUnits="userSpaceOnUse" color-interpolation-filters="sRGB">
<feFlood flood-opacity="0" result="BackgroundImageFix"/>
<feBlend mode="normal" in="SourceGraphic" in2="BackgroundImageFix" result="shape"/>
<feGaussianBlur stdDeviation="5.58333" result="effect1_foregroundBlur_1_49151"/>
</filter>
<filter id="filter2_f_1_49151" x="-10.1612" y="4.97048" width="31.2667" height="31.2666" filterUnits="userSpaceOnUse" color-interpolation-filters="sRGB">
<feFlood flood-opacity="0" result="BackgroundImageFix"/>
<feBlend mode="normal" in="SourceGraphic" in2="BackgroundImageFix" result="shape"/>
<feGaussianBlur stdDeviation="4.46667" result="effect1_foregroundBlur_1_49151"/>
</filter>
<radialGradient id="paint0_radial_1_49151" cx="0" cy="0" r="1" gradientUnits="userSpaceOnUse" gradientTransform="translate(9.94775 21.858) rotate(-61.8868) scale(11.5526)">
<stop stop-color="#FFD502"/>
<stop offset="0.869374" stop-color="#FF1154"/>
</radialGradient>
</defs>
</svg>
