<svg width="33" height="33" viewBox="0 0 33 33" fill="none" xmlns="http://www.w3.org/2000/svg">
<path d="M12.6819 12.7831L7.07211 7.17334M7.07211 26.0295L12.7242 20.3775M20.315 20.4197L25.9247 26.0295M25.9247 7.17334L20.2718 12.8262M29.8335 16.6014C29.8335 23.9652 23.864 29.9347 16.5002 29.9347C9.13641 29.9347 3.16687 23.9652 3.16687 16.6014C3.16687 9.2376 9.13641 3.26807 16.5002 3.26807C23.864 3.26807 29.8335 9.2376 29.8335 16.6014ZM21.8335 16.6014C21.8335 19.5469 19.4457 21.9347 16.5002 21.9347C13.5547 21.9347 11.1669 19.5469 11.1669 16.6014C11.1669 13.6559 13.5547 11.2681 16.5002 11.2681C19.4457 11.2681 21.8335 13.6559 21.8335 16.6014Z" stroke="#343A40" stroke-width="2" stroke-linecap="round" stroke-linejoin="round"/>
</svg>
