<svg width="33" height="33" viewBox="0 0 33 33" fill="none" xmlns="http://www.w3.org/2000/svg">
<path d="M26.2333 11.1613V18.028C26.2333 22.1347 23.8866 23.8946 20.3666 23.8946H8.64663C8.04663 23.8946 7.4733 23.8414 6.93996 23.7214C6.60663 23.668 6.28664 23.5747 5.99331 23.468C3.99331 22.7214 2.77997 20.988 2.77997 18.028V11.1613C2.77997 7.05463 5.12663 5.29468 8.64663 5.29468H20.3666C23.3533 5.29468 25.5 6.56134 26.0733 9.45467C26.1666 9.988 26.2333 10.5346 26.2333 11.1613Z" stroke="#343A40" stroke-width="2" stroke-miterlimit="10" stroke-linecap="round" stroke-linejoin="round"/>
<path d="M30.2347 15.1615V22.0282C30.2347 26.1348 27.8881 27.8948 24.3681 27.8948H12.6481C11.6614 27.8948 10.7681 27.7615 9.99475 27.4682C8.40808 26.8815 7.32807 25.6682 6.94141 23.7215C7.47474 23.8415 8.04807 23.8948 8.64807 23.8948H20.3681C23.8881 23.8948 26.2347 22.1348 26.2347 18.0282V11.1615C26.2347 10.5348 26.1814 9.97483 26.0747 9.45483C28.6081 9.98817 30.2347 11.7748 30.2347 15.1615Z" stroke="#343A40" stroke-width="2" stroke-miterlimit="10" stroke-linecap="round" stroke-linejoin="round"/>
<path d="M14.4979 18.1211C16.4419 18.1211 18.0179 16.5451 18.0179 14.6011C18.0179 12.657 16.4419 11.0811 14.4979 11.0811C12.5538 11.0811 10.9778 12.657 10.9778 14.6011C10.9778 16.5451 12.5538 18.1211 14.4979 18.1211Z" stroke="#343A40" stroke-width="2" stroke-miterlimit="10" stroke-linecap="round" stroke-linejoin="round"/>
<path d="M6.87329 11.668V17.5347" stroke="#343A40" stroke-width="2" stroke-miterlimit="10" stroke-linecap="round" stroke-linejoin="round"/>
<path d="M22.1289 11.6685V17.5352" stroke="#343A40" stroke-width="2" stroke-miterlimit="10" stroke-linecap="round" stroke-linejoin="round"/>
</svg>
