<svg width="33" height="33" viewBox="0 0 33 33" fill="none" xmlns="http://www.w3.org/2000/svg">
<path d="M17.8335 10.6016L13.8335 14.6016L19.1668 17.2682L15.1668 21.2682M27.1668 16.6016C27.1668 23.1461 20.0282 27.9061 17.4308 29.4214C17.1356 29.5936 16.988 29.6797 16.7797 29.7244C16.6181 29.759 16.3822 29.759 16.2206 29.7244C16.0123 29.6797 15.8647 29.5936 15.5695 29.4214C12.9721 27.9061 5.8335 23.1461 5.8335 16.6016V10.225C5.8335 9.15901 5.8335 8.626 6.00784 8.16783C6.16186 7.76307 6.41214 7.40192 6.73704 7.11559C7.10482 6.79147 7.60389 6.60432 8.60204 6.23002L15.7511 3.54912C16.0283 3.44517 16.1669 3.3932 16.3095 3.37259C16.4359 3.35432 16.5644 3.35432 16.6909 3.37259C16.8334 3.3932 16.972 3.44517 17.2492 3.54912L24.3983 6.23002C25.3964 6.60432 25.8955 6.79147 26.2633 7.11559C26.5882 7.40192 26.8385 7.76307 26.9925 8.16783C27.1668 8.626 27.1668 9.15901 27.1668 10.225V16.6016Z" stroke="#343A40" stroke-width="2" stroke-linecap="round" stroke-linejoin="round"/>
</svg>
