<svg width="24" height="24" viewBox="0 0 24 24" fill="none" xmlns="http://www.w3.org/2000/svg">
<path d="M11.8334 21.9351C17.3562 21.9351 21.8334 17.4579 21.8334 11.9351C21.8334 6.41221 17.3562 1.93506 11.8334 1.93506C6.31053 1.93506 1.83337 6.41221 1.83337 11.9351C1.83337 17.4579 6.31053 21.9351 11.8334 21.9351Z" fill="url(#paint0_linear_1_49145)"/>
<path fill-rule="evenodd" clip-rule="evenodd" d="M6.36119 11.829C9.2764 10.5589 11.2203 9.72159 12.193 9.31703C14.9701 8.16194 15.5471 7.96129 15.9233 7.95466C16.006 7.9532 16.1909 7.9737 16.3108 8.07092C16.4119 8.15301 16.4398 8.26391 16.4531 8.34174C16.4664 8.41957 16.483 8.59687 16.4698 8.7354C16.3193 10.3166 15.6681 14.1539 15.3368 15.9249C15.1967 16.6743 14.9207 16.9255 14.6534 16.9501C14.0727 17.0036 13.6317 16.5664 13.0693 16.1977C12.1892 15.6207 11.6919 15.2616 10.8376 14.6986C9.85031 14.048 10.4903 13.6904 11.053 13.106C11.2003 12.953 13.7589 10.6257 13.8084 10.4146C13.8146 10.3882 13.8204 10.2898 13.7619 10.2378C13.7034 10.1858 13.6171 10.2036 13.5549 10.2177C13.4666 10.2378 12.0606 11.1671 9.33682 13.0057C8.93772 13.2798 8.57623 13.4133 8.25235 13.4063C7.8953 13.3986 7.20848 13.2044 6.6979 13.0384C6.07165 12.8349 5.57391 12.7272 5.61725 12.3815C5.63983 12.2014 5.88781 12.0173 6.36119 11.829Z" fill="white"/>
<defs>
<linearGradient id="paint0_linear_1_49145" x1="1001.83" y1="1.93506" x2="1001.83" y2="1987.1" gradientUnits="userSpaceOnUse">
<stop stop-color="#2AABEE"/>
<stop offset="1" stop-color="#229ED9"/>
</linearGradient>
</defs>
</svg>
