<svg width="23" height="24" viewBox="0 0 23 24" fill="none" xmlns="http://www.w3.org/2000/svg">
<path fill-rule="evenodd" clip-rule="evenodd" d="M18.5041 4.84135C16.6332 2.96813 14.145 1.93601 11.4939 1.93506C6.03103 1.93506 1.58506 6.38051 1.58316 11.8448C1.58221 13.5916 2.03888 15.2966 2.90612 16.7992L1.5 21.9351L6.75381 20.557C8.20126 21.3468 9.83119 21.7626 11.4897 21.7631H11.4939C16.9559 21.7631 21.4023 17.3171 21.4042 11.8528C21.4052 9.20461 20.3754 6.71505 18.5041 4.84183V4.84135ZM11.4939 20.0894H11.4906C10.0127 20.089 8.5629 19.6917 7.29794 18.9413L6.99712 18.7627L3.87933 19.5805L4.7114 16.5406L4.51562 16.2289C3.69115 14.9174 3.25539 13.4015 3.25634 11.8453C3.25824 7.30381 6.95339 3.60869 11.4973 3.60869C13.6974 3.60964 15.7655 4.46738 17.3208 6.02459C18.8762 7.58133 19.732 9.65129 19.7311 11.8519C19.7291 16.3938 16.034 20.089 11.4939 20.089V20.0894ZM16.0121 13.9204C15.7645 13.7964 14.5471 13.1976 14.3199 13.115C14.0928 13.0323 13.9279 12.991 13.763 13.239C13.5981 13.4871 13.1234 14.0449 12.9789 14.2098C12.8345 14.3752 12.69 14.3956 12.4424 14.2716C12.1949 14.1476 11.397 13.8862 10.4509 13.0427C9.71481 12.386 9.2177 11.5753 9.07328 11.3273C8.92881 11.0792 9.05808 10.9452 9.18159 10.8221C9.29278 10.711 9.42918 10.5328 9.55319 10.3883C9.67726 10.2438 9.71812 10.1403 9.80078 9.97534C9.88349 9.80997 9.84214 9.66556 9.78038 9.54149C9.71857 9.41748 9.22345 8.19858 9.01672 7.70297C8.81569 7.22018 8.61139 7.28576 8.45979 7.27768C8.31532 7.27055 8.15044 7.26913 7.98507 7.26913C7.8197 7.26913 7.55166 7.3309 7.32453 7.57895C7.0974 7.82698 6.45776 8.4262 6.45776 9.6446C6.45776 10.863 7.34499 12.041 7.469 12.2064C7.59302 12.3718 9.21532 14.8727 11.6992 15.9457C12.2899 16.2009 12.7513 16.3534 13.111 16.4675C13.7041 16.6561 14.2439 16.6295 14.6706 16.5658C15.1463 16.4946 16.1357 15.9666 16.3419 15.3883C16.5481 14.81 16.5481 14.3139 16.4864 14.2108C16.4246 14.1076 16.2593 14.0454 16.0117 13.9214L16.0121 13.9204Z" fill="#25D366"/>
</svg>
