<svg width="16" height="16" viewBox="0 0 16 16" fill="none" xmlns="http://www.w3.org/2000/svg">
<path opacity="0.4" d="M8.00004 3.53333V14.22C7.88671 14.22 7.76671 14.2 7.67337 14.1467L7.64671 14.1333C6.36671 13.4333 4.13337 12.7 2.68671 12.5067L2.49337 12.48C1.85337 12.4 1.33337 11.8 1.33337 11.16V3.10667C1.33337 2.31333 1.98004 1.71333 2.77337 1.78C4.17337 1.89333 6.29337 2.6 7.48004 3.34L7.64671 3.44C7.74671 3.5 7.87337 3.53333 8.00004 3.53333Z" fill="#343A40"/>
<path d="M14.6667 3.11333V11.16C14.6667 11.8 14.1467 12.4 13.5067 12.48L13.2867 12.5067C11.8333 12.7 9.59333 13.44 8.31333 14.1467C8.22667 14.2 8.12 14.22 8 14.22V3.53333C8.12667 3.53333 8.25333 3.5 8.35333 3.44L8.46667 3.36667C9.65333 2.62 11.78 1.90667 13.18 1.78667H13.22C14.0133 1.72 14.6667 2.31333 14.6667 3.11333Z" fill="#343A40"/>
<path d="M5.16663 6.16H3.66663C3.39329 6.16 3.16663 5.93334 3.16663 5.66C3.16663 5.38667 3.39329 5.16 3.66663 5.16H5.16663C5.43996 5.16 5.66663 5.38667 5.66663 5.66C5.66663 5.93334 5.43996 6.16 5.16663 6.16Z" fill="#343A40"/>
<path d="M5.66663 8.16H3.66663C3.39329 8.16 3.16663 7.93334 3.16663 7.66C3.16663 7.38667 3.39329 7.16 3.66663 7.16H5.66663C5.93996 7.16 6.16663 7.38667 6.16663 7.66C6.16663 7.93334 5.93996 8.16 5.66663 8.16Z" fill="#343A40"/>
</svg>
