<svg width="16" height="16" viewBox="0 0 16 16" fill="none" xmlns="http://www.w3.org/2000/svg">
<path d="M12.9134 3.26L9.0067 1.52C8.43337 1.26667 7.5667 1.26667 6.99337 1.52L3.0867 3.26C2.10004 3.7 1.95337 4.3 1.95337 4.62C1.95337 4.94 2.10004 5.54 3.0867 5.98L6.99337 7.72C7.28004 7.84667 7.64004 7.91334 8.00004 7.91334C8.36004 7.91334 8.72004 7.84667 9.0067 7.72L12.9134 5.98C13.9 5.54 14.0467 4.94 14.0467 4.62C14.0467 4.3 13.9067 3.7 12.9134 3.26Z" fill="#343A40"/>
<path opacity="0.4" d="M7.99997 11.36C7.74663 11.36 7.4933 11.3067 7.25997 11.2067L2.76663 9.20667C2.07996 8.9 1.54663 8.08 1.54663 7.32667C1.54663 7.05334 1.76663 6.83334 2.03996 6.83334C2.3133 6.83334 2.5333 7.05334 2.5333 7.32667C2.5333 7.68667 2.8333 8.15334 3.16663 8.3L7.65997 10.3C7.8733 10.3933 8.11997 10.3933 8.3333 10.3L12.8266 8.3C13.16 8.15334 13.46 7.69334 13.46 7.32667C13.46 7.05334 13.68 6.83334 13.9533 6.83334C14.2266 6.83334 14.4466 7.05334 14.4466 7.32667C14.4466 8.07334 13.9133 8.9 13.2266 9.20667L8.7333 11.2067C8.50663 11.3067 8.2533 11.36 7.99997 11.36Z" fill="#343A40"/>
<path opacity="0.4" d="M7.99997 14.6667C7.74663 14.6667 7.4933 14.6133 7.25997 14.5133L2.76663 12.5133C2.02663 12.1867 1.54663 11.4467 1.54663 10.6333C1.54663 10.36 1.76663 10.14 2.03996 10.14C2.3133 10.14 2.5333 10.36 2.5333 10.6333C2.5333 11.0533 2.77996 11.4333 3.16663 11.6067L7.65997 13.6067C7.8733 13.7 8.11997 13.7 8.3333 13.6067L12.8266 11.6067C13.2066 11.44 13.46 11.0533 13.46 10.6333C13.46 10.36 13.68 10.14 13.9533 10.14C14.2266 10.14 14.4466 10.36 14.4466 10.6333C14.4466 11.4467 13.9666 12.18 13.2266 12.5133L8.7333 14.5133C8.50663 14.6133 8.2533 14.6667 7.99997 14.6667Z" fill="#343A40"/>
</svg>
