<svg width="16" height="16" viewBox="0 0 16 16" fill="none" xmlns="http://www.w3.org/2000/svg">
<path opacity="0.4" d="M4.48667 13.1333C5.03334 12.5467 5.86666 12.5933 6.34666 13.2333L7.02 14.1333C7.56 14.8467 8.43333 14.8467 8.97333 14.1333L9.64667 13.2333C10.1267 12.5933 10.96 12.5467 11.5067 13.1333C12.6933 14.4 13.66 13.98 13.66 12.2067V4.69999C13.66 2.01332 13.0333 1.34 10.5133 1.34H5.47333C2.95333 1.34 2.32666 2.01332 2.32666 4.69999V12.2067C2.33333 13.98 3.30667 14.3933 4.48667 13.1333Z" fill="#343A40"/>
<path d="M9.89338 6.66L9.56004 7H9.55337L7.53337 9.02C7.4467 9.10667 7.26671 9.20001 7.14004 9.21334L6.24004 9.34666C5.91337 9.39333 5.68672 9.16001 5.73338 8.84001L5.86005 7.93333C5.88005 7.80667 5.9667 7.63333 6.05337 7.54L8.08004 5.52L8.41338 5.18C8.63338 4.96 8.88005 4.80001 9.14671 4.80001C9.37338 4.80001 9.62004 4.90666 9.89338 5.18C10.4934 5.78 10.3 6.25333 9.89338 6.66Z" fill="#343A40"/>
</svg>
