<svg width="16" height="16" viewBox="0 0 16 16" fill="none" xmlns="http://www.w3.org/2000/svg">
<path opacity="0.4" d="M14.0334 7.80668V11.8C14.0334 13.64 12.54 15.1333 10.7 15.1333H4.87337C4.72004 15.1333 4.56671 15.12 4.42004 15.1C4.66671 14.9933 4.88671 14.8467 5.08671 14.6667C5.11338 14.6467 5.13336 14.6267 5.15336 14.6C5.33336 14.4467 5.4867 14.2533 5.61336 14.04C5.86003 13.64 6.00004 13.1667 6.00004 12.6667C6.00004 11.9667 5.7267 11.3334 5.2867 10.8534C5.22004 10.78 5.14669 10.7066 5.06669 10.6466C4.60002 10.24 4.00004 10 3.33337 10C2.86004 10 2.41336 10.1267 2.02669 10.3467C1.90003 10.4133 1.78004 10.4933 1.66671 10.5867C1.62004 10.62 1.58004 10.66 1.54004 10.7V7.85335C2.04671 8.40002 2.76671 8.71334 3.54671 8.71334C4.38671 8.71334 5.19337 8.29333 5.70003 7.62C6.15337 8.29333 6.9267 8.71334 7.7867 8.71334C8.64004 8.71334 9.40003 8.31331 9.86003 7.64665C10.3734 8.30665 11.1667 8.71334 11.9934 8.71334C12.8 8.71334 13.5334 8.38668 14.0334 7.80668Z" fill="#343A40"/>
<path d="M9.78001 1.04667H5.78001L5.28669 5.95333C5.24669 6.40666 5.31334 6.83334 5.48001 7.22001C5.86667 8.12668 6.77335 8.71334 7.78669 8.71334C8.81335 8.71334 9.70004 8.14002 10.1 7.22668C10.22 6.94001 10.2934 6.60668 10.3 6.26668V6.14001L9.78001 1.04667Z" fill="#343A40"/>
<path opacity="0.6" d="M14.6934 5.72669L14.5067 3.87333C14.2267 1.86 13.3134 1.04 11.36 1.04H8.80005L9.29338 6.04C9.30004 6.10667 9.30672 6.18002 9.30672 6.30668C9.34672 6.65335 9.45336 6.97335 9.61336 7.26001C10.0934 8.14001 11.0267 8.70667 12 8.70667C12.8867 8.70667 13.6867 8.31333 14.1867 7.62C14.5801 7.09333 14.76 6.42002 14.6934 5.72669Z" fill="#343A40"/>
<path opacity="0.6" d="M4.17996 1.04667C2.21996 1.04667 1.31327 1.86665 1.0266 3.89998L0.846632 5.73331C0.779965 6.44665 0.973303 7.14001 1.3933 7.68001C1.89997 8.34001 2.67996 8.71334 3.54662 8.71334C4.51996 8.71334 5.45329 8.14665 5.92663 7.27999C6.09996 6.97999 6.21328 6.63331 6.24661 6.27331L6.76663 1.05334H4.17996V1.04667Z" fill="#343A40"/>
<path d="M5.28662 10.8534C5.21995 10.78 5.14661 10.7066 5.06661 10.6466C4.59994 10.24 3.99996 10 3.33329 10C2.85996 10 2.41328 10.1267 2.02661 10.3467C1.89994 10.4133 1.77996 10.4933 1.66663 10.5867C1.05329 11.0733 0.666626 11.8267 0.666626 12.6667C0.666626 13.1667 0.806637 13.64 1.0533 14.04C1.1133 14.1467 1.18664 14.2467 1.26664 14.34C1.27998 14.36 1.29994 14.3734 1.31327 14.3934C1.79327 14.9667 2.51996 15.3333 3.33329 15.3333C4.00663 15.3333 4.61996 15.0867 5.08663 14.6667C5.1133 14.6467 5.13328 14.6267 5.15328 14.6C5.33328 14.4467 5.48661 14.2533 5.61328 14.04C5.85995 13.64 5.99996 13.1667 5.99996 12.6667C5.99996 11.9667 5.72662 11.3334 5.28662 10.8534ZM4.33329 13.1533H3.83329V13.6733C3.83329 13.9467 3.60663 14.1733 3.33329 14.1733C3.05996 14.1733 2.83329 13.9467 2.83329 13.6733V13.1533H2.33329C2.05996 13.1533 1.83329 12.9267 1.83329 12.6533C1.83329 12.38 2.05996 12.1533 2.33329 12.1533H2.83329V11.68C2.83329 11.4067 3.05996 11.18 3.33329 11.18C3.60663 11.18 3.83329 11.4067 3.83329 11.68V12.1533H4.33329C4.60663 12.1533 4.83329 12.38 4.83329 12.6533C4.83329 12.9267 4.60663 13.1533 4.33329 13.1533Z" fill="#343A40"/>
</svg>
