<svg width="16" height="16" viewBox="0 0 16 16" fill="none" xmlns="http://www.w3.org/2000/svg">
<path opacity="0.4" d="M2.78001 10.2L5.80001 13.22C7.04001 14.46 9.05334 14.46 10.3 13.22L13.2267 10.2933C14.4667 9.05334 14.4667 7.04 13.2267 5.79334L10.2 2.78C9.56668 2.14667 8.69334 1.80667 7.80001 1.85334L4.46668 2.01334C3.13334 2.07334 2.07334 3.13334 2.00668 4.46L1.84668 7.79333C1.80668 8.69334 2.14668 9.56667 2.78001 10.2Z" fill="#FF6B6B"/>
<path d="M6.33333 8.25333C7.39372 8.25333 8.25333 7.39372 8.25333 6.33333C8.25333 5.27294 7.39372 4.41333 6.33333 4.41333C5.27294 4.41333 4.41333 5.27294 4.41333 6.33333C4.41333 7.39372 5.27294 8.25333 6.33333 8.25333Z" fill="#FF6B6B"/>
<path d="M8.66667 11.8333C8.54 11.8333 8.41333 11.7867 8.31333 11.6867C8.12 11.4933 8.12 11.1733 8.31333 10.98L10.98 8.31333C11.1733 8.12 11.4933 8.12 11.6867 8.31333C11.88 8.50667 11.88 8.82667 11.6867 9.02L9.02 11.6867C8.92 11.7867 8.79333 11.8333 8.66667 11.8333Z" fill="#FF6B6B"/>
</svg>
