<svg width="16" height="16" viewBox="0 0 16 16" fill="none" xmlns="http://www.w3.org/2000/svg">
<path d="M5.58667 7.99999L7.19334 9.61332L10.4133 6.38666" stroke="white" stroke-linecap="round" stroke-linejoin="round"/>
<path d="M7.16667 1.63335C7.62667 1.24002 8.38 1.24002 8.84667 1.63335L9.9 2.54002C10.1 2.71335 10.4733 2.85335 10.74 2.85335H11.8733C12.58 2.85335 13.16 3.43335 13.16 4.14002V5.27335C13.16 5.53335 13.3 5.91335 13.4733 6.11335L14.38 7.16668C14.7733 7.62668 14.7733 8.38002 14.38 8.84668L13.4733 9.90002C13.3 10.1 13.16 10.4733 13.16 10.74V11.8733C13.16 12.58 12.58 13.16 11.8733 13.16H10.74C10.48 13.16 10.1 13.3 9.9 13.4733L8.84667 14.38C8.38667 14.7733 7.63334 14.7733 7.16667 14.38L6.11334 13.4733C5.91334 13.3 5.54 13.16 5.27334 13.16H4.12C3.41334 13.16 2.83334 12.58 2.83334 11.8733V10.7333C2.83334 10.4733 2.69334 10.1 2.52667 9.90002L1.62667 8.84002C1.24 8.38002 1.24 7.63335 1.62667 7.17335L2.52667 6.11335C2.69334 5.91335 2.83334 5.54002 2.83334 5.28002V4.13335C2.83334 3.42668 3.41334 2.84668 4.12 2.84668H5.27334C5.53334 2.84668 5.91334 2.70668 6.11334 2.53335L7.16667 1.63335Z" stroke="white" stroke-linecap="round" stroke-linejoin="round"/>
</svg>
