<svg width="24" height="24" viewBox="0 0 24 24" fill="none" xmlns="http://www.w3.org/2000/svg">
<path d="M17.7419 3.70697H15.4169C15.0452 3.70697 14.7439 4.01652 14.7439 4.39838C14.7439 4.78022 15.0452 5.08977 15.4169 5.08977H17.7419C18.1135 5.08977 18.4149 4.78022 18.4149 4.39838C18.4149 4.01652 18.1135 3.70697 17.7419 3.70697Z" fill="#343A40"/>
<path d="M21.9974 6.78706C21.977 6.40992 21.9158 5.91495 21.8139 5.30211C21.7544 4.94594 21.6932 4.61158 21.6303 4.29906C21.5599 3.94987 21.2199 3.73337 20.8851 3.82416C20.5758 3.90796 20.3838 4.22398 20.4466 4.54524C20.5095 4.8665 20.569 5.18776 20.6285 5.52996C20.7254 6.08518 20.784 6.51468 20.8043 6.81848C20.8248 7.19561 20.7151 7.48894 20.4756 7.69845C20.2359 7.90797 19.8203 8.01272 19.2289 8.01272H7.73589V6.44136C7.73589 5.7709 7.61862 5.17641 7.38409 4.65785C7.14956 4.1393 6.81305 3.73337 6.37457 3.44004C5.9361 3.14672 5.42623 3.00006 4.845 3.00006C4.29435 3.00006 3.80235 3.15196 3.36896 3.45576C2.93559 3.75955 2.59908 4.17335 2.35945 4.69714C2.11982 5.22093 2 5.80233 2 6.44136C2 7.38418 2.26257 8.11748 2.78773 8.64127C3.31288 9.16506 4.00373 9.42696 4.8603 9.42696H6.51223V9.52123C6.51223 9.77265 6.41536 9.97169 6.22161 10.1184C6.02786 10.265 5.74235 10.3907 5.36506 10.4955C4.98776 10.6002 4.35554 10.7469 3.46839 10.9355L3.448 10.9398C3.08175 11.0149 2.84722 11.3851 2.92879 11.7596C3.00782 12.1227 3.35452 12.3541 3.70887 12.2816C3.85333 12.2519 3.99694 12.2222 4.1414 12.1926C5.09993 11.9935 5.82648 11.7945 6.32104 11.5954C6.8156 11.3964 7.17505 11.1371 7.39938 10.8176C7.62372 10.4981 7.73589 10.066 7.73589 9.52123V9.42696H19.2289C19.851 9.42696 20.3735 9.30124 20.7967 9.04983C21.2199 8.7984 21.5309 8.47104 21.7297 8.06772C21.9286 7.6644 22.0178 7.23751 21.9974 6.78706ZM6.54282 8.01272H4.8603C4.27906 8.01272 3.85588 7.89487 3.59075 7.65917C3.32563 7.42346 3.19306 7.01752 3.19306 6.44136C3.19306 5.82329 3.33837 5.3283 3.62899 4.95642C3.91961 4.58452 4.32494 4.39858 4.845 4.39858C5.40584 4.39858 5.82902 4.57928 6.11454 4.9407C6.40006 5.30211 6.54282 5.80233 6.54282 6.44136V8.01272Z" fill="#343A40"/>
<path d="M7.30764 15.8616C7.30764 15.4277 6.96524 15.0759 6.54287 15.0759C6.12048 15.0759 5.77808 15.4277 5.77808 15.8616C5.77808 16.2955 6.12048 16.6473 6.54287 16.6473C6.96524 16.6473 7.30764 16.2955 7.30764 15.8616Z" fill="#343A40"/>
<path d="M21.5325 15.3666C21.3082 14.8271 20.9921 14.3985 20.5842 14.0781C20.1763 13.7585 19.7073 13.5988 19.177 13.5988C18.5142 13.5988 17.9482 13.8327 17.4792 14.2981C17.0101 14.7642 16.6634 15.4059 16.439 16.223L15.9496 18.0301C15.8986 18.25 15.7992 18.4151 15.6513 18.5251C15.5035 18.635 15.3072 18.69 15.0624 18.69C14.6035 18.69 14.2747 18.6412 14.0758 18.5407C13.877 18.4412 13.7445 18.2658 13.6781 18.0144C13.6119 17.763 13.5787 17.3543 13.5787 16.7887L13.5634 12.7503C13.5634 12.3522 13.4972 12.0021 13.3646 11.6974C13.232 11.3937 13.023 11.1553 12.7375 10.9825C12.452 10.8096 12.09 10.7232 11.6514 10.7232H11.1467C10.698 10.7232 10.3284 10.8096 10.0378 10.9825C9.74716 11.1553 9.53812 11.391 9.41065 11.6896C9.28319 11.9882 9.21946 12.3417 9.21946 12.7503L9.23476 17.1344C9.23476 17.742 9.15318 18.2213 8.99002 18.5722C8.82687 18.9239 8.55155 19.1798 8.16405 19.3421C7.77656 19.5054 7.23612 19.5857 6.54271 19.5857H6.32008C5.68785 19.5857 5.1678 19.4504 4.75991 19.1772C4.35203 18.9047 4.05121 18.5312 3.85746 18.0536C3.66372 17.577 3.56685 17.0304 3.56685 16.4115C3.56685 16.1925 3.59999 15.8947 3.64077 15.6119C3.70111 15.1911 3.34251 14.8341 2.93463 14.9075C2.67289 14.9545 2.47321 15.171 2.43751 15.4416C2.39502 15.7603 2.37378 16.0833 2.37378 16.4115C2.37378 17.2077 2.52419 17.9576 2.825 18.6586C3.12582 19.3605 3.57194 19.9262 4.16338 20.3557C4.75481 20.7861 5.47371 20.9999 6.32008 20.9999H6.54271C7.45025 20.9999 8.1921 20.8428 8.76824 20.5285C9.34437 20.2143 9.76756 19.7691 10.0378 19.1929C10.308 18.6175 10.438 17.9306 10.4278 17.1344L10.4125 12.7503C10.4125 12.5093 10.461 12.3478 10.5578 12.2631C10.6547 12.1793 10.851 12.1374 11.1467 12.1374H11.6514C11.9268 12.1374 12.1154 12.1846 12.2174 12.2789C12.3194 12.3731 12.3703 12.5303 12.3703 12.7503L12.3857 16.7887C12.3857 17.5019 12.4647 18.099 12.6228 18.5801C12.7808 19.062 13.0535 19.4364 13.441 19.7035C13.8285 19.9707 14.3691 20.1042 15.0624 20.1042C15.3581 20.1042 15.6437 20.0362 15.9189 19.9C16.1943 19.7646 16.4339 19.5762 16.6379 19.3343L16.6991 19.3658C17.4944 19.7847 18.0859 20.071 18.4734 20.2221C18.8608 20.374 19.2483 20.4499 19.6358 20.4499C20.0233 20.4499 20.3726 20.3382 20.7142 20.1122C21.0558 19.8869 21.3337 19.5255 21.5478 19.0279C21.762 18.5312 21.869 17.8948 21.869 17.1187C21.869 16.4901 21.7569 15.907 21.5325 15.3666ZM20.4159 18.635C20.2426 18.9021 19.9825 19.0357 19.6358 19.0357C19.3708 19.0357 19.0903 18.9755 18.7946 18.855C18.4989 18.7355 18.0043 18.4962 17.3109 18.14L17.2038 18.0772L17.6015 16.6001C17.7443 16.0658 17.9507 15.6677 18.221 15.4059C18.4912 15.1449 18.8099 15.013 19.177 15.013C19.6665 15.013 20.0386 15.1999 20.2936 15.5709C20.5485 15.9428 20.6759 16.4587 20.6759 17.1187C20.6759 17.8633 20.5893 18.3679 20.4159 18.635Z" fill="#343A40"/>
</svg>
