<svg width="16" height="16" viewBox="0 0 16 16" fill="none" xmlns="http://www.w3.org/2000/svg">
<path d="M11.8183 2.48529H10.2723C10.0251 2.48529 9.82471 2.69114 9.82471 2.94507C9.82471 3.19899 10.0251 3.40484 10.2723 3.40484H11.8183C12.0655 3.40484 12.2659 3.19899 12.2659 2.94507C12.2659 2.69114 12.0655 2.48529 11.8183 2.48529Z" fill="#FF6B6B"/>
<path d="M14.6482 4.5337C14.6346 4.28291 14.5939 3.95375 14.5261 3.54622C14.4866 3.30937 14.4459 3.08703 14.4041 2.8792C14.3572 2.64699 14.1312 2.50302 13.9085 2.5634C13.7028 2.61913 13.5751 2.82927 13.6169 3.04291C13.6588 3.25654 13.6983 3.47018 13.7379 3.69774C13.8023 4.06695 13.8413 4.35257 13.8548 4.55459C13.8684 4.80538 13.7955 5.00044 13.6362 5.13977C13.4768 5.27909 13.2005 5.34876 12.8072 5.34876H5.16441V4.30381C5.16441 3.85797 5.08643 3.46263 4.93047 3.1178C4.77451 2.77297 4.55073 2.50302 4.25915 2.30797C3.96757 2.11291 3.62851 2.01538 3.242 2.01538C2.87582 2.01538 2.54864 2.11639 2.26044 2.31841C1.97225 2.52044 1.74848 2.79561 1.58913 3.14392C1.42977 3.49224 1.3501 3.87886 1.3501 4.30381C1.3501 4.93078 1.52471 5.41842 1.87393 5.76673C2.22315 6.11505 2.68256 6.28921 3.25217 6.28921H4.35069V6.3519C4.35069 6.51909 4.28627 6.65145 4.15743 6.74898C4.02859 6.84651 3.83873 6.9301 3.58783 6.99977C3.33693 7.06943 2.91651 7.16696 2.32656 7.29235L2.313 7.29525C2.06945 7.34518 1.91349 7.59132 1.96773 7.84037C2.02029 8.08186 2.25084 8.2357 2.48648 8.18752C2.58254 8.16779 2.67805 8.14805 2.77411 8.1283C3.41152 7.99594 3.89467 7.86358 4.22355 7.73123C4.55243 7.59887 4.79146 7.42646 4.94064 7.21398C5.08982 7.00151 5.16441 6.71415 5.16441 6.3519V6.28921H12.8072C13.2208 6.28921 13.5683 6.20561 13.8497 6.03842C14.1312 5.87122 14.338 5.65353 14.4702 5.38533C14.6024 5.11713 14.6617 4.83325 14.6482 4.5337ZM4.37103 5.34876H3.25217C2.86565 5.34876 2.58424 5.27038 2.40793 5.11364C2.23163 4.9569 2.14347 4.68695 2.14347 4.30381C2.14347 3.8928 2.2401 3.56364 2.43336 3.31634C2.62662 3.06903 2.89616 2.94538 3.242 2.94538C3.61495 2.94538 3.89636 3.06555 4.08623 3.30589C4.2761 3.54622 4.37103 3.87886 4.37103 4.30381V5.34876Z" fill="#FF6B6B"/>
<path d="M4.8797 10.5681C4.8797 10.2796 4.652 10.0457 4.37113 10.0457C4.09024 10.0457 3.86255 10.2796 3.86255 10.5681C3.86255 10.8567 4.09024 11.0906 4.37113 11.0906C4.652 11.0906 4.8797 10.8567 4.8797 10.5681Z" fill="#FF6B6B"/>
<path d="M14.3388 10.239C14.1896 9.88032 13.9794 9.59528 13.7082 9.38223C13.4369 9.16972 13.125 9.0635 12.7724 9.0635C12.3316 9.0635 11.9552 9.21905 11.6433 9.52849C11.3314 9.83847 11.1008 10.2652 10.9516 10.8086L10.6262 12.0102C10.5923 12.1565 10.5261 12.2663 10.4278 12.3394C10.3295 12.4125 10.199 12.4491 10.0362 12.4491C9.73105 12.4491 9.51241 12.4166 9.38013 12.3498C9.2479 12.2837 9.1598 12.167 9.11568 11.9998C9.07163 11.8326 9.04957 11.5609 9.04957 11.1847L9.03942 8.49922C9.03942 8.23451 8.99536 8.00171 8.90719 7.79911C8.81902 7.59709 8.68003 7.4386 8.49016 7.32366C8.30028 7.20872 8.05959 7.15125 7.76794 7.15125H7.43231C7.13394 7.15125 6.88813 7.20872 6.69488 7.32366C6.50162 7.4386 6.36261 7.59535 6.27785 7.79389C6.19308 7.99243 6.1507 8.22753 6.1507 8.49922L6.16087 11.4146C6.16087 11.8187 6.10663 12.1374 5.99813 12.3708C5.88964 12.6047 5.70655 12.7748 5.44887 12.8828C5.19119 12.9913 4.8318 13.0447 4.37069 13.0447H4.22264C3.80221 13.0447 3.45638 12.9548 3.18514 12.7731C2.9139 12.5919 2.71387 12.3435 2.58503 12.0259C2.45619 11.709 2.39177 11.3455 2.39177 10.9339C2.39177 10.7883 2.41381 10.5903 2.44093 10.4022C2.48105 10.1224 2.24259 9.88493 1.97135 9.93373C1.7973 9.96502 1.66451 10.109 1.64077 10.289C1.61252 10.5009 1.59839 10.7157 1.59839 10.9339C1.59839 11.4634 1.69841 11.962 1.89845 12.4282C2.09849 12.895 2.39516 13.2711 2.78846 13.5568C3.18175 13.843 3.65981 13.9852 4.22264 13.9852H4.37069C4.9742 13.9852 5.46752 13.8807 5.85065 13.6717C6.23377 13.4627 6.51518 13.1667 6.69488 12.7835C6.87457 12.4009 6.96103 11.9441 6.95425 11.4146L6.94408 8.49922C6.94408 8.339 6.97629 8.2316 7.04071 8.17529C7.10513 8.11956 7.23566 8.09169 7.43231 8.09169H7.76794C7.95105 8.09169 8.0765 8.12304 8.14431 8.18574C8.21211 8.24844 8.24601 8.35293 8.24601 8.49922L8.25623 11.1847C8.25623 11.659 8.30874 12.0561 8.41389 12.376C8.51898 12.6964 8.70033 12.9455 8.95801 13.1231C9.21569 13.3008 9.57514 13.3895 10.0362 13.3895C10.2329 13.3895 10.4227 13.3443 10.6058 13.2537C10.7889 13.1637 10.9483 13.0384 11.0839 12.8775L11.1246 12.8985C11.6535 13.1771 12.0468 13.3675 12.3045 13.4679C12.5621 13.569 12.8198 13.6194 13.0775 13.6194C13.3352 13.6194 13.5674 13.5452 13.7946 13.3948C14.0217 13.245 14.2065 13.0047 14.3489 12.6738C14.4913 12.3435 14.5625 11.9203 14.5625 11.4042C14.5625 10.9862 14.488 10.5984 14.3388 10.239ZM13.5962 12.4125C13.481 12.5902 13.308 12.679 13.0775 12.679C12.9012 12.679 12.7147 12.639 12.5181 12.5588C12.3214 12.4793 11.9925 12.3202 11.5314 12.0834L11.4602 12.0416L11.7247 11.0593C11.8196 10.704 11.9569 10.4393 12.1366 10.2652C12.3163 10.0916 12.5282 10.0039 12.7724 10.0039C13.0979 10.0039 13.3453 10.1282 13.5149 10.3749C13.6844 10.6222 13.7691 10.9653 13.7691 11.4042C13.7691 11.8993 13.7115 12.2349 13.5962 12.4125Z" fill="#FF6B6B"/>
</svg>
