<svg width="60" height="60" viewBox="0 0 60 60" fill="none" xmlns="http://www.w3.org/2000/svg">
<path d="M53.9799 24.3252C53.9719 25.8094 53.449 27.1316 52.4407 28.2414C50.208 30.692 47.97 33.1372 45.732 35.5825C44.6543 36.7613 43.3206 37.3401 41.7068 37.3348C37.6068 37.3189 33.5096 37.3295 29.4096 37.3295C29.1882 37.3295 28.9615 37.3348 28.7481 37.287C28.1372 37.1516 27.8492 36.5569 28.1639 36.0206C28.3453 35.7099 28.6227 35.4497 28.8815 35.1895C33.1708 30.8725 37.4628 26.5608 41.7521 22.2437C42.1549 21.8375 42.5577 21.4313 42.9631 21.0251L42.9872 21.0012C43.2006 20.7861 43.4246 20.5817 43.6167 20.3507L53.1343 10.5404C53.6651 9.99614 53.7905 9.17309 53.4464 8.49872C53.3557 8.32348 53.2597 8.15622 53.1556 8.00488C53.7051 8.76953 53.9799 9.66161 53.9825 10.6519C53.9959 15.2106 54.0012 19.7666 53.9799 24.3252Z" fill="url(#paint0_linear_4368_243809)"/>
<path d="M53.1348 10.5409L43.6172 20.3512C43.6359 20.3299 43.6546 20.306 43.6733 20.2821C44.6922 19.0024 44.012 17.2687 42.3875 17.0218C42.0247 16.966 41.6513 16.9899 41.2832 16.9899C35.6334 16.9899 29.1755 16.9767 23.523 16.9979C22.5281 17.0032 21.6478 16.7749 20.7862 16.2837C16.2728 13.7083 11.7434 11.1595 7.21935 8.60275C6.99528 8.47531 6.76855 8.35052 6.55248 8.21246C6.05099 7.89386 5.90428 7.43454 6.05366 6.87699C6.19504 6.3513 6.57649 6.0858 7.09398 6.02473C7.42208 5.98491 7.75819 6.00615 8.08895 6.00615C14.7363 6.00615 22.192 6.00615 28.8394 6.00615C35.4867 6.00615 42.2808 6.01146 49.0002 6.00349H49.0082C50.3126 6.00349 51.481 6.34333 52.46 7.2248C52.724 7.46375 52.9534 7.71863 53.1482 7.98944C53.1482 7.99475 53.1535 7.9974 53.1562 8.00271C53.2602 8.15671 53.3562 8.32132 53.4469 8.49655C53.791 9.17357 53.663 9.99397 53.1348 10.5383V10.5409Z" fill="url(#paint1_linear_4368_243809)"/>
<path d="M6.01826 35.6785C6.02627 34.1944 6.54909 32.8722 7.5574 31.7624C9.79009 29.3118 12.0281 26.8666 14.2661 24.4213C15.3438 23.2425 16.6775 22.6637 18.2914 22.669C22.3913 22.6849 26.4886 22.6743 30.5885 22.6743C30.8099 22.6743 31.0366 22.669 31.25 22.7168C31.8609 22.8522 32.149 23.4469 31.8342 23.9832C31.6528 24.2938 31.3754 24.554 31.1167 24.8142C26.8273 29.1313 22.5354 33.443 18.246 37.7601C17.8432 38.1663 17.4405 38.5725 17.035 38.9787L17.011 39.0026C16.7976 39.2177 16.5735 39.4221 16.3815 39.6531L6.86386 49.4634C6.33303 50.0076 6.20765 50.8307 6.55176 51.5051C6.64246 51.6803 6.73848 51.8476 6.84252 51.9989C6.29301 51.2343 6.01826 50.3422 6.0156 49.3518C6.00226 44.7932 5.99692 40.2372 6.01826 35.6785Z" fill="url(#paint2_linear_4368_243809)"/>
<path d="M6.8593 49.4607L16.3769 39.6504C16.3582 39.6716 16.3396 39.6955 16.3209 39.7194C15.3019 40.9991 15.9821 42.7329 17.6066 42.9798C17.9694 43.0355 18.3428 43.0116 18.7109 43.0116C24.3607 43.0116 30.8187 43.0249 36.4711 43.0037C37.4661 42.9984 38.3463 43.2267 39.2079 43.7179C43.7213 46.2932 48.2507 48.842 52.7748 51.3988C52.9988 51.5263 53.2256 51.651 53.4417 51.7891C53.9431 52.1077 54.0899 52.567 53.9405 53.1246C53.7991 53.6503 53.4176 53.9158 52.9002 53.9768C52.5721 54.0167 52.2359 53.9954 51.9052 53.9954C45.2578 53.9954 37.8022 53.9954 31.1548 53.9954C24.5074 53.9954 17.7133 53.9901 10.9939 53.9981H10.9859C9.6815 53.9981 8.51314 53.6582 7.53417 52.7768C7.27009 52.5378 7.04068 52.2829 6.84596 52.0121C6.84596 52.0068 6.84062 52.0042 6.83796 51.9989C6.73392 51.8449 6.63789 51.6803 6.5472 51.505C6.20309 50.828 6.33113 50.0076 6.8593 49.4633V49.4607Z" fill="url(#paint3_linear_4368_243809)"/>
<defs>
<linearGradient id="paint0_linear_4368_243809" x1="34.4192" y1="16.3522" x2="52.8382" y2="34.5617" gradientUnits="userSpaceOnUse">
<stop stop-color="#FF6000"/>
<stop offset="1" stop-color="#FF6000"/>
</linearGradient>
<linearGradient id="paint1_linear_4368_243809" x1="34.3771" y1="12.1525" x2="52.3618" y2="28.6152" gradientUnits="userSpaceOnUse">
<stop stop-color="#FF6000"/>
<stop offset="0.16" stop-color="#FC5F00"/>
<stop offset="0.24" stop-color="#F45C00"/>
<stop offset="0.31" stop-color="#E75700"/>
<stop offset="0.36" stop-color="#D45000"/>
<stop offset="0.41" stop-color="#BC4700"/>
<stop offset="0.46" stop-color="#9D3C00"/>
<stop offset="0.5" stop-color="#7A2F00"/>
<stop offset="0.53" stop-color="#5A2300"/>
</linearGradient>
<linearGradient id="paint2_linear_4368_243809" x1="25.579" y1="43.6515" x2="7.15995" y2="25.4421" gradientUnits="userSpaceOnUse">
<stop stop-color="#FF6000"/>
<stop offset="1" stop-color="#FF6000"/>
</linearGradient>
<linearGradient id="paint3_linear_4368_243809" x1="25.6171" y1="47.8491" x2="7.63235" y2="31.389" gradientUnits="userSpaceOnUse">
<stop stop-color="#FF6000"/>
<stop offset="0.16" stop-color="#FC5F00"/>
<stop offset="0.24" stop-color="#F45C00"/>
<stop offset="0.31" stop-color="#E75700"/>
<stop offset="0.36" stop-color="#D45000"/>
<stop offset="0.41" stop-color="#BC4700"/>
<stop offset="0.46" stop-color="#9D3C00"/>
<stop offset="0.5" stop-color="#7A2F00"/>
<stop offset="0.53" stop-color="#5A2300"/>
</linearGradient>
</defs>
</svg>
