<svg width="24" height="24" viewBox="0 0 24 24" fill="none" xmlns="http://www.w3.org/2000/svg">
<g clip-path="url(#clip0_112_1060)">
<path d="M12.4013 11.9392C14.2151 11.6464 15.4481 9.93866 15.1553 8.12489C14.8625 6.31112 13.1548 5.07812 11.341 5.37092C9.52723 5.66371 8.29424 7.37141 8.58703 9.18518C8.87982 10.9989 10.5875 12.2319 12.4013 11.9392Z" fill="#ED1C24"/>
<path fill-rule="evenodd" clip-rule="evenodd" d="M14.944 0H6.24551V14.4968H20.7423V5.79899C20.7381 4.26241 20.1259 2.78994 19.0394 1.70334C17.953 0.616743 16.4806 0.0043575 14.944 0V0ZM18.5894 23.0438C18.601 23.1085 18.5964 23.1752 18.5757 23.2376C18.55 23.319 18.5168 23.3978 18.4767 23.4731C18.4294 23.5634 18.3664 23.6446 18.2907 23.7129C18.2617 23.7502 18.2201 23.7757 18.1737 23.7846C18.1558 23.7846 18.1149 23.7581 18.0517 23.7035C17.9885 23.649 17.9311 23.6023 17.8801 23.5599C17.8337 23.5253 17.7898 23.4874 17.7487 23.4465C17.7203 23.4242 17.7009 23.3923 17.6942 23.3568C17.7306 23.2778 17.7578 23.2175 17.776 23.1759C17.8363 23.0431 17.8815 22.9469 17.9117 22.8887C17.9655 22.7983 18.0201 22.705 18.0739 22.608L18.1285 22.5269C18.1451 22.5438 18.1634 22.559 18.1831 22.5721C18.201 22.5843 18.2247 22.5994 18.2548 22.6174C18.3467 22.6873 18.4315 22.7659 18.5083 22.8521C18.5506 22.9079 18.5784 22.9732 18.5894 23.0424V23.0438ZM17.7997 19.4925C17.7997 19.4882 17.7997 19.4846 17.7997 19.481L17.6849 19.4695C17.5461 19.4695 17.3908 19.5384 17.219 19.6762C17.0415 19.8197 16.8881 19.9905 16.7645 20.1823C16.7109 20.2742 16.6686 20.351 16.6375 20.4128C16.5915 20.5015 16.5531 20.594 16.5226 20.6892L16.5413 20.6791L16.5255 20.6949L16.2606 21.0538C16.148 21.2063 16.0124 21.3402 15.8586 21.4508C15.7204 21.5354 15.5603 21.5774 15.3984 21.5714C15.3333 21.5561 15.2696 21.5349 15.2082 21.5083C15.1113 21.4693 15.0082 21.4479 14.9038 21.4451C14.7193 21.4475 14.5394 21.5037 14.3862 21.6066C14.2539 21.6938 14.1306 21.7938 14.0179 21.9052C13.9229 21.9782 13.8343 22.0591 13.753 22.1472C13.6127 22.2918 13.482 22.4455 13.3618 22.6073C13.3273 22.6525 13.3055 22.706 13.2986 22.7624C13.2986 22.8126 13.3044 22.8406 13.3274 22.8485C13.3891 22.8643 13.4774 22.8277 13.5922 22.7394C13.6948 22.6587 13.8069 22.591 13.9261 22.5377C14.0428 22.4905 14.1678 22.4673 14.2936 22.4695C14.413 22.4877 14.5292 22.5225 14.6389 22.5729C14.7159 22.6033 14.798 22.6189 14.8808 22.6188C15.1871 22.6188 15.4786 22.4616 15.7552 22.1472C15.8313 22.0625 15.9253 21.9497 16.0366 21.8076C16.1042 21.7117 16.1835 21.6246 16.2728 21.5485C16.3588 21.4946 16.4585 21.4667 16.5599 21.4681C16.6264 21.475 16.6921 21.4884 16.7559 21.5083C16.8231 21.5294 16.8925 21.5429 16.9627 21.5485C17.0055 21.5514 17.0485 21.5455 17.089 21.5312C17.1139 21.5195 17.1379 21.5061 17.1608 21.491C17.191 21.453 17.2326 21.4034 17.2757 21.3417C17.3611 21.2402 17.4132 21.1149 17.425 20.9828C17.425 20.9368 17.3826 20.8758 17.2986 20.799C17.2567 20.7602 17.2126 20.7238 17.1665 20.6899C17.1254 20.6626 17.0884 20.6294 17.0567 20.5915C17.0203 20.5502 16.9999 20.4973 16.9993 20.4422H16.9892L16.9964 20.4386C16.9964 20.3618 17.0503 20.2814 17.1572 20.1967C17.1971 20.1595 17.2444 20.131 17.2959 20.1132C17.3475 20.0954 17.4022 20.0886 17.4566 20.0933C17.5167 20.1046 17.5736 20.1291 17.6231 20.1651C17.6754 20.2021 17.7378 20.2224 17.8019 20.2233C17.8019 20.2233 17.8019 20.2182 17.8019 20.2154V20.2347C17.9397 20.2347 18.1084 20.1043 18.308 19.8435C18.3539 19.7717 18.4042 19.6899 18.4573 19.5901C18.4731 19.552 18.5032 19.4788 18.5499 19.3747C18.5951 19.2369 18.5915 19.1594 18.5384 19.1443C18.5075 19.1364 18.4616 19.1831 18.3999 19.2828C18.3528 19.3634 18.2969 19.4386 18.2333 19.5068C18.2101 19.5303 18.1823 19.5488 18.1517 19.5611C18.1211 19.5735 18.0883 19.5794 18.0553 19.5786C18.0173 19.5721 17.9803 19.5605 17.9454 19.5441C17.899 19.5247 17.851 19.5093 17.8019 19.4982L17.7997 19.4925ZM9.03446 20.9067C8.99928 21.0503 8.97272 21.1673 8.95549 21.2484C8.93471 21.3394 8.90834 21.4291 8.87653 21.5169C8.7934 21.7761 8.6842 22.0263 8.55061 22.2635C8.41027 22.5164 8.24814 22.7566 8.06604 22.9813C7.81894 23.2896 7.51568 23.5483 7.17229 23.7437C6.84911 23.9178 6.48694 24.0067 6.11988 24.0022C5.67767 24.0022 5.33932 23.8653 5.10481 23.5915C4.8703 23.3178 4.75281 22.9636 4.75233 22.5291C4.7546 22.2915 4.78277 22.0549 4.83632 21.8234C4.88044 21.6101 4.94191 21.4007 5.0201 21.1974C5.08662 21.0323 5.16559 20.8586 5.257 20.6762C5.37617 20.4369 5.50586 20.195 5.64609 19.9505C5.67622 19.8939 5.70978 19.8392 5.74659 19.7868C5.75664 19.7767 5.77602 19.7753 5.80402 19.7818C5.81838 19.7889 5.81981 19.8277 5.80905 19.8973C5.80099 19.9579 5.78876 20.0179 5.77243 20.0768L5.4257 20.8327C5.33477 21.0639 5.27495 21.2216 5.24623 21.3058C5.19813 21.4591 5.17392 21.6189 5.17444 21.7796C5.17444 22.1941 5.31467 22.4922 5.59512 22.6741C5.83482 22.8222 6.11327 22.8955 6.39483 22.8844C6.59973 22.887 6.80431 22.8675 7.00502 22.8263C7.42094 22.7252 7.79793 22.504 8.08902 22.1902C8.22345 22.0385 8.34608 21.8768 8.45585 21.7064C8.5324 21.5817 8.59568 21.4494 8.64465 21.3116C8.69085 21.1634 8.71243 21.0087 8.70854 20.8536L8.72936 20.0962C8.72813 19.9791 8.74212 19.8623 8.771 19.7487C8.80987 19.6132 8.85563 19.4798 8.90811 19.3489L9.11845 18.939C9.1608 18.8615 9.19024 18.8141 9.19742 18.7954C9.21501 18.7678 9.23443 18.7414 9.25556 18.7164C9.27302 18.7343 9.28592 18.756 9.29317 18.7799C9.30042 18.8038 9.3018 18.829 9.2972 18.8536L9.24551 19.2233L9.19311 19.7487C9.1946 19.9284 9.18212 20.108 9.15578 20.2857C9.13137 20.4403 9.09117 20.6473 9.03518 20.9067H9.03446ZM7.73798 20.0919C7.72942 20.0042 7.69322 19.9215 7.6346 19.8557C7.53333 19.7472 7.42151 19.6491 7.30079 19.5628C7.26688 19.5376 7.23029 19.5161 7.19167 19.4989C7.14932 19.4803 7.10553 19.4587 7.05958 19.4357L6.9878 19.5398C6.92606 19.6317 6.85355 19.7509 6.77243 19.8988L6.50826 20.4968C6.51499 20.5272 6.52822 20.5557 6.54706 20.5805C6.5659 20.6053 6.58989 20.6257 6.61737 20.6403C6.6827 20.6827 6.75377 20.7265 6.83273 20.7724C6.84039 20.7806 6.93252 20.8497 7.10912 20.9799C7.13922 21.006 7.17442 21.0256 7.21249 21.0373C7.2972 21.0223 7.42785 20.8837 7.61522 20.6231C7.70242 20.5067 7.75066 20.3658 7.75305 20.2204C7.75428 20.178 7.75042 20.1355 7.74157 20.094L7.73798 20.0919ZM9.77602 20.9957C9.77602 20.9038 9.7832 20.7545 9.79899 20.547C9.85212 19.8291 9.91385 19.6913 10.0144 18.9806L10.0596 18.682C10.0739 18.6216 10.0777 18.5592 10.0711 18.4975L10.0251 18.5205C9.95621 18.664 9.86432 18.8794 9.74946 19.1665C9.6346 19.4501 9.56999 19.6066 9.56569 19.6382C9.50897 20.0136 9.50467 19.9828 9.42211 20.6927C9.33955 21.4027 9.29002 21.8011 9.29002 21.8952V22.1106C9.29002 22.1486 9.2972 22.2426 9.31299 22.392C9.33821 22.5665 9.41295 22.7302 9.52836 22.8636C9.66092 23.0316 9.80761 23.1156 9.96841 23.1156C10.2522 23.1156 10.4786 22.9354 10.6475 22.575C10.7682 22.3155 10.8309 22.0328 10.8313 21.7466C10.8216 21.6568 10.7922 21.5703 10.7452 21.4932C10.7196 21.451 10.6853 21.4148 10.6446 21.3871C10.6038 21.3593 10.5576 21.3407 10.509 21.3324C10.4707 21.4171 10.4247 21.5379 10.3711 21.6949C10.3173 21.8521 10.2793 21.9347 10.2563 21.9419C10.1896 21.9385 10.1247 21.9196 10.0667 21.8865C10.0087 21.8535 9.9593 21.8073 9.92247 21.7516C9.82268 21.6253 9.77315 21.4386 9.77315 21.1938V20.9978L9.77602 20.9957ZM10.9684 21.8141C10.9684 21.7222 11.0105 21.3216 11.0948 20.6123C11.1795 19.9031 11.1831 19.9957 11.2383 19.6202C11.2434 19.5887 11.3101 19.4322 11.4221 19.1486C11.5341 18.865 11.6296 18.6504 11.6985 18.5025L11.7444 18.4795C11.7507 18.5413 11.7468 18.6036 11.733 18.664L11.687 18.9627C11.5879 19.6734 11.5262 19.7523 11.4716 20.4666C11.4563 20.6738 11.4487 20.8234 11.4487 20.9153C11.4487 21.0151 11.4487 21.1149 11.4544 21.2146C11.462 21.3363 11.4834 21.4568 11.5183 21.5736C11.5642 21.6886 11.6419 21.7882 11.7423 21.8607C11.8625 21.942 12.0058 21.9823 12.1508 21.9756C12.3534 21.9855 12.5518 21.9151 12.7028 21.7796C12.8866 21.6112 13.0093 21.5154 13.0711 21.4925C13.1184 21.4835 13.1668 21.4816 13.2146 21.4867C13.28 21.4903 13.3352 21.4925 13.3812 21.4925C13.4336 21.4968 13.486 21.4847 13.5312 21.458C13.6237 21.3958 13.6956 21.3076 13.738 21.2046C13.7538 21.1508 13.7724 21.0933 13.7954 21.0323C13.8489 21.0397 13.9029 21.0435 13.9569 21.0438C13.9947 21.0411 14.031 21.0277 14.0615 21.0052C14.092 20.9827 14.1155 20.952 14.1292 20.9167C14.1645 20.8401 14.1952 20.7615 14.2211 20.6813C14.2599 20.57 14.2929 20.5147 14.313 20.5147C14.3331 20.5147 14.3589 20.5492 14.3589 20.6181C14.3558 20.8815 14.2782 21.1386 14.135 21.3597C13.9856 21.6016 13.8299 21.7186 13.6691 21.7186C13.5693 21.8622 13.5118 21.9447 13.4968 21.9605C13.3972 22.0754 13.3051 22.1328 13.2204 22.1328C13.1493 22.1198 13.0773 22.1121 13.005 22.1098C12.9469 22.1147 12.8902 22.1303 12.8378 22.1558C12.7655 22.1869 12.6236 22.3403 12.4121 22.6159C12.2005 22.8916 11.9725 23.0297 11.7279 23.0301C11.6062 23.036 11.4855 23.0049 11.3819 22.9408C11.2782 22.8767 11.1964 22.7827 11.1472 22.6712C11.0213 22.4019 10.9601 22.1069 10.9684 21.8098V21.8141ZM16.3424 23.1917C16.3548 23.2612 16.3498 23.3327 16.3281 23.3999C16.3003 23.4872 16.2645 23.5718 16.2211 23.6525C16.1706 23.749 16.1036 23.8357 16.023 23.9088C15.9914 23.9488 15.9466 23.9763 15.8966 23.9864C15.8772 23.9864 15.8335 23.9576 15.766 23.8995C15.6985 23.8414 15.6368 23.7911 15.5822 23.7487C15.5316 23.712 15.4836 23.6717 15.4386 23.6281C15.408 23.6041 15.3873 23.5696 15.3805 23.5312C15.4192 23.4472 15.448 23.3826 15.4673 23.3374C15.5319 23.1938 15.5798 23.0905 15.6109 23.0273C15.6693 22.9316 15.7274 22.8313 15.7854 22.7265L15.8435 22.6396C15.8612 22.6575 15.8807 22.6737 15.9017 22.6877C15.921 22.7006 15.9469 22.7172 15.9792 22.7365C16.0778 22.8113 16.1687 22.8957 16.2505 22.9885C16.2962 23.0478 16.3261 23.1177 16.3374 23.1917H16.3424ZM17.341 23.1335C17.3536 23.2033 17.3484 23.2752 17.3259 23.3424C17.2981 23.4292 17.2625 23.5133 17.2197 23.5937C17.1691 23.6905 17.1018 23.7775 17.0208 23.8507C16.9896 23.8908 16.945 23.9183 16.8952 23.9282C16.8758 23.9282 16.832 23.8995 16.7638 23.8413C16.6956 23.7832 16.6346 23.733 16.58 23.6906C16.5294 23.6538 16.4814 23.6135 16.4365 23.57C16.4058 23.5459 16.3851 23.5114 16.3783 23.4731C16.4171 23.3891 16.4501 23.3245 16.4659 23.2793C16.5305 23.1357 16.5784 23.0323 16.6095 22.9691C16.6679 22.8734 16.726 22.7731 16.7839 22.6683L16.8421 22.5815C16.8598 22.5994 16.8793 22.6155 16.9002 22.6296C16.9196 22.6425 16.9454 22.659 16.9777 22.6784C17.0764 22.7531 17.1673 22.8375 17.2491 22.9304C17.295 22.9896 17.3251 23.0595 17.3367 23.1335H17.341ZM11.6985 2.81263C13.2929 2.81263 15.4702 2.8593 16.5212 3.91027C17.5721 4.96123 17.4968 7.01651 17.4968 8.6145V17.3094H3V2.81263H11.6985Z" fill="#0072BC"/>
</g>
<defs>
<clipPath id="clip0_112_1060">
<rect width="24" height="24" fill="white"/>
</clipPath>
</defs>
</svg>
