<svg width="17" height="16" viewBox="0 0 17 16" fill="none" xmlns="http://www.w3.org/2000/svg">
<path d="M11.8066 4.11356C13.14 5.04022 14.06 6.51356 14.2466 8.21356" stroke="#343A40" stroke-linecap="round" stroke-linejoin="round"/>
<path d="M2.82617 8.24865C2.99951 6.55532 3.90617 5.08198 5.22617 4.14865" stroke="#343A40" stroke-linecap="round" stroke-linejoin="round"/>
<path d="M5.96094 13.9612C6.73427 14.3545 7.61427 14.5745 8.54094 14.5745C9.43427 14.5745 10.2743 14.3745 11.0276 14.0078" stroke="#343A40" stroke-linecap="round" stroke-linejoin="round"/>
<path d="M8.54083 5.13266C9.5644 5.13266 10.3942 4.3029 10.3942 3.27933C10.3942 2.25576 9.5644 1.42599 8.54083 1.42599C7.51727 1.42599 6.6875 2.25576 6.6875 3.27933C6.6875 4.3029 7.51727 5.13266 8.54083 5.13266Z" stroke="#343A40" stroke-linecap="round" stroke-linejoin="round"/>
<path d="M3.72052 13.2811C4.74409 13.2811 5.57385 12.4513 5.57385 11.4278C5.57385 10.4042 4.74409 9.57443 3.72052 9.57443C2.69695 9.57443 1.86719 10.4042 1.86719 11.4278C1.86719 12.4513 2.69695 13.2811 3.72052 13.2811Z" stroke="#343A40" stroke-linecap="round" stroke-linejoin="round"/>
<path d="M13.2791 13.2811C14.3027 13.2811 15.1324 12.4513 15.1324 11.4278C15.1324 10.4042 14.3027 9.57443 13.2791 9.57443C12.2555 9.57443 11.4258 10.4042 11.4258 11.4278C11.4258 12.4513 12.2555 13.2811 13.2791 13.2811Z" stroke="#343A40" stroke-linecap="round" stroke-linejoin="round"/>
</svg>
