<svg width="16" height="16" viewBox="0 0 16 16" fill="none" xmlns="http://www.w3.org/2000/svg">
<path d="M9.25998 3.47203L10.2 5.35203C10.3266 5.61203 10.6666 5.85869 10.9533 5.91202L12.6533 6.19202C13.74 6.37202 13.9933 7.15869 13.2133 7.94536L11.8866 9.27203C11.6666 9.49203 11.54 9.92536 11.6133 10.2387L11.9933 11.8787C12.2933 13.172 11.6 13.6787 10.46 12.9987L8.86663 12.052C8.57996 11.8787 8.09997 11.8787 7.8133 12.052L6.21996 12.9987C5.07996 13.672 4.38663 13.172 4.68663 11.8787L5.06664 10.2387C5.13997 9.93203 5.0133 9.4987 4.7933 9.27203L3.46664 7.94536C2.68664 7.16536 2.93997 6.37869 4.02664 6.19202L5.72663 5.91202C6.0133 5.86536 6.3533 5.61203 6.47997 5.35203L7.41997 3.47203C7.91997 2.45203 8.74664 2.45203 9.25998 3.47203Z" fill="#FCC419"/>
</svg>
