<svg width="16" height="16" viewBox="0 0 16 16" fill="none" xmlns="http://www.w3.org/2000/svg">
<path d="M2.11328 4.96002L7.99994 8.36668L13.8466 4.98" stroke="#343A40" stroke-linecap="round" stroke-linejoin="round"/>
<path d="M8 14.4067V8.36002" stroke="#343A40" stroke-linecap="round" stroke-linejoin="round"/>
<path d="M6.61991 1.65334L3.05992 3.63336C2.25325 4.08003 1.59326 5.20002 1.59326 6.12002V9.8867C1.59326 10.8067 2.25325 11.9267 3.05992 12.3734L6.61991 14.3534C7.37991 14.7734 8.62658 14.7734 9.38658 14.3534L12.9466 12.3734C13.7533 11.9267 14.4132 10.8067 14.4132 9.8867V6.12002C14.4132 5.20002 13.7533 4.08003 12.9466 3.63336L9.38658 1.65334C8.61991 1.22668 7.37991 1.22668 6.61991 1.65334Z" stroke="#343A40" stroke-linecap="round" stroke-linejoin="round"/>
<path d="M11.3333 8.82665V6.38667L5.00659 2.73331" stroke="#343A40" stroke-linecap="round" stroke-linejoin="round"/>
</svg>
