<svg width="58" height="58" viewBox="0 0 58 58" fill="none" xmlns="http://www.w3.org/2000/svg">
<path d="M21.656 13.4688C22.2688 13.4688 22.7654 12.9721 22.7654 12.3594C22.7654 11.7467 22.2688 11.25 21.656 11.25C21.0433 11.25 20.5466 11.7467 20.5466 12.3594C20.5466 12.9721 21.0433 13.4688 21.656 13.4688Z" fill="black"/>
<path d="M36.0787 18.4056V23.6752C36.0787 24.84 36.9421 25.7276 38.0756 25.7276C39.1978 25.7276 40.0725 24.8399 40.0723 23.7092L40.0725 18.4056C40.0726 17.6398 40.6934 17.0189 41.4593 17.0189H42.846V23.5644C42.846 26.1989 40.7103 28.3347 38.0756 28.3347C35.4409 28.3347 33.3052 26.1989 33.3052 23.5644V17.0189H34.6919C35.4578 17.0189 36.0787 17.6398 36.0787 18.4056Z" fill="#4E91E6"/>
<path fill-rule="evenodd" clip-rule="evenodd" d="M29.6994 12.8031H31.0862V26.948C31.0862 27.7138 30.4654 28.3347 29.6994 28.3347H28.3127V14.1898C28.3127 13.424 28.9336 12.8031 29.6994 12.8031Z" fill="#4E91E6"/>
<path d="M17.7735 12.8031L17.7734 18.069C18.6513 17.2737 19.7711 16.7969 20.9908 16.7969C23.8092 16.7969 26.094 19.3425 26.094 22.4826C26.094 22.5065 26.0939 22.5305 26.0936 22.5543C26.0939 22.5766 26.094 22.5989 26.094 22.6213C26.0936 25.8662 23.6105 28.3347 20.547 28.3347C17.5375 28.3347 15.0878 25.8662 15.0023 22.7878L15 22.7877V14.1898C15 13.4192 15.6281 12.8031 16.3867 12.8031H17.7735ZM20.4915 19.3486C18.8985 19.3486 17.6071 20.7766 17.6071 22.5381C17.6071 24.2996 18.8985 25.7276 20.4915 25.7276C22.0846 25.7276 23.376 24.2996 23.376 22.5381C23.376 20.7766 22.0846 19.3486 20.4915 19.3486Z" fill="#4E91E6"/>
<path d="M30.6316 47.2178C30.6316 47.4429 30.6892 47.6029 30.8054 47.6973C30.9216 47.7844 31.1034 47.8281 31.3503 47.8281H32.6941C33.2604 47.8281 33.5436 47.6174 33.5437 47.1963C33.5437 47.0075 33.5114 46.7242 33.446 46.3467C33.3879 45.969 33.3189 45.6054 33.239 45.2568L34.3933 44.9629C34.4805 45.3478 34.5609 45.7586 34.6335 46.1943C34.7134 46.6225 34.7527 46.9637 34.7527 47.2178C34.7527 47.5591 34.6767 47.8825 34.5242 48.1875C34.3789 48.4924 34.1534 48.7389 33.8484 48.9277C33.5507 49.1092 33.1914 49.2002 32.7703 49.2002H31.3503C31.1252 49.2002 30.8962 49.153 30.6638 49.0586C30.4388 48.9642 30.2394 48.8225 30.0652 48.6338C29.8764 48.8226 29.6578 48.9642 29.4109 49.0586C29.1713 49.153 28.9387 49.2002 28.7136 49.2002H27.6472C27.6327 50.0498 27.3862 50.729 26.907 51.2373C26.435 51.7456 25.698 51.9999 24.696 52H23.4324V50.6279H24.696C25.1679 50.6279 25.5273 50.5797 25.7742 50.4854C26.0209 50.3909 26.1915 50.2423 26.2859 50.0391C26.3803 49.843 26.431 49.5633 26.4382 49.2002H25.4255C24.7574 49.2002 24.2269 49.0045 23.8347 48.6123C23.4427 48.2202 23.2469 47.6755 23.2468 46.9785C23.2468 46.4847 23.3377 46.0451 23.5193 45.6602C23.7081 45.268 23.9659 44.963 24.2927 44.7451C24.6195 44.5273 24.9936 44.418 25.4148 44.418C25.8576 44.418 26.2459 44.5274 26.5798 44.7451C26.9211 44.9557 27.1825 45.2573 27.364 45.6494C27.5528 46.0343 27.6472 46.4774 27.6472 46.9785V47.8281H28.6707C28.9247 47.8281 29.1136 47.7809 29.2371 47.6865C29.3678 47.5849 29.4333 47.403 29.4333 47.1416V42H30.6316V47.2178ZM32.8796 51.9453H31.5505V50.6387H32.8796V51.9453ZM25.4148 45.7256C25.088 45.7256 24.8371 45.8383 24.6628 46.0635C24.4959 46.2813 24.4129 46.5716 24.4128 46.9346C24.4128 47.2613 24.4924 47.5008 24.6521 47.6533C24.8191 47.7986 25.077 47.8711 25.4255 47.8711H26.4382V46.9561C26.4382 46.5716 26.355 46.2705 26.1882 46.0527C26.0285 45.8349 25.7705 45.7256 25.4148 45.7256Z" fill="#4E91E6"/>
</svg>
