<svg width="58" height="58" viewBox="0 0 58 58" fill="none" xmlns="http://www.w3.org/2000/svg">
<path fill-rule="evenodd" clip-rule="evenodd" d="M38.3334 12.2222C38.3334 8.78578 35.5476 6 32.1112 6H19.6667V8.07407C19.6667 11.5105 22.4525 14.2963 25.889 14.2963H38.3334V12.2222ZM38.3334 18.4444V16.3704H25.889L25.6557 16.3747C22.3273 16.4973 19.6667 19.2343 19.6667 22.5926V34H21.7408L21.9741 33.9957C25.3024 33.873 27.963 31.1361 27.963 27.7778V24.6667H32.1112L32.3445 24.6624C35.6728 24.5397 38.3334 21.8028 38.3334 18.4444Z" fill="#0040FF"/>
<g clip-path="url(#clip0_112_1099)">
<path d="M36.606 48.8957H34.7639V50.7342H36.606V48.8957Z" fill="#003EFF"/>
<path d="M41.6624 48.8957H37.9783V50.7342H41.6624V48.8957Z" fill="#003EFF"/>
<path d="M18.634 50.2759V51.6667H20.4761V50.7342H21.8642V48.8957H19.7213C19.1196 48.8957 18.634 49.3803 18.634 49.9809V50.2759Z" fill="#003EFF"/>
<path d="M40.7383 45.0554C40.7383 45.656 40.2527 46.1407 39.651 46.1407H37.0542V44.9817C37.0542 43.3328 35.7189 42 34.0721 42H31.5334V43.8385H34.1302C34.7319 43.8385 35.2175 44.3232 35.2175 44.9237V46.1407H28.3137V47.9792H31.5334V49.1961C31.5334 49.7967 31.0478 50.2813 30.4461 50.2813H27.0892C26.4875 50.2813 26.002 49.7967 26.002 49.1961V46.1407H24.1599V49.1382C24.1599 50.787 25.4953 52.1199 27.1473 52.1199H30.388C32.0348 52.1199 33.3754 50.787 33.3754 49.1382V47.9792H39.6035C41.2503 47.9792 42.5909 46.6464 42.5909 44.9975V42.9219H40.7489V45.0554H40.7383Z" fill="#003EFF"/>
<path d="M20.9351 45.0561C20.9351 45.6566 20.4495 46.1413 19.8478 46.1413H12.6486V47.9798H15.8682V49.1967C15.8682 49.7973 15.3826 50.2819 14.7809 50.2819H11.424C10.8223 50.2819 10.3368 49.7973 10.3368 49.1967V46.1413H8.5V49.1388C8.5 50.7877 9.83535 52.1205 11.4874 52.1205H14.7281C16.3801 52.1205 17.7155 50.7877 17.7155 49.1388V47.9798H19.7951C21.4471 47.9798 22.7824 46.647 22.7824 44.9981V42.9436H20.9404V45.0508L20.9351 45.0561Z" fill="#003EFF"/>
<path d="M46.5179 42H43.5146V43.8385H46.5759C47.1776 43.8385 47.6632 44.3232 47.6632 44.9237V45.0554C47.6632 45.656 47.1776 46.1407 46.5759 46.1407H43.5146V47.9792H46.5179C48.1646 47.9792 49.5053 46.6464 49.5053 44.9975V44.9817C49.5053 43.3328 48.1699 42 46.5179 42Z" fill="#003EFF"/>
</g>
<defs>
<clipPath id="clip0_112_1099">
<rect width="41" height="10" fill="white" transform="translate(8.5 42)"/>
</clipPath>
</defs>
</svg>
