<svg width="58" height="58" viewBox="0 0 58 58" fill="none" xmlns="http://www.w3.org/2000/svg">
<path d="M38.6604 6.00037H19.3327C16.9417 6.00037 15 7.94261 15 10.3341V24.2339H19.768C21.4195 24.2339 23.0296 23.5496 24.1767 22.3677L30.0642 16.2852H22.767C21.62 16.2852 20.6871 15.3521 20.6871 14.2048V11.1705H39.3307V16.2852H37.1609L27.846 25.9135C25.7384 28.0838 22.7947 29.3349 19.7749 29.3349H15.0069V29.6666C15.0069 32.0581 16.9487 34.0004 19.3396 34.0004H38.6673C41.0652 34.0004 43 32.0581 43 29.6666V10.3341C43 7.94261 41.0582 6.00037 38.6673 6.00037H38.6604ZM39.3376 28.5123C39.3376 28.9685 38.9645 29.3418 38.5084 29.3418H34.8736C34.4176 29.3418 34.0444 28.9685 34.0444 28.5123V24.8767C34.0444 24.4205 34.4176 24.0473 34.8736 24.0473H38.5084C38.9645 24.0473 39.3376 24.4205 39.3376 24.8767V28.5123Z" fill="#E21D3D"/>
<path d="M39.0123 45.5684L36.6171 48.0354C36.4314 48.2264 36.1688 48.3378 35.9009 48.3378H30.8982C30.7152 48.3378 30.5667 48.1892 30.5667 48.0062V45.4995H36.3412C36.8054 45.4995 37.1794 45.1228 37.1794 44.6612V43.6771H30.8346L29.1874 45.4013C28.9035 45.6984 28.7444 46.0963 28.7444 46.5075V48.0089C28.7444 49.1999 29.7099 50.1628 30.8982 50.1628H35.9009C36.6595 50.1628 37.3969 49.8524 37.9248 49.3086L41.5561 45.5711H39.0123V45.5684Z" fill="#E21D3D"/>
<path d="M26.7434 43.6757H23.1253L21.4781 45.3972C21.1943 45.6943 21.0352 46.0922 21.0352 46.5034V48.0048C21.0352 49.1958 22.0007 50.1587 23.189 50.1587H24.8309L22.937 51.9996H25.0564C25.3747 51.9996 25.6824 51.8749 25.9105 51.6521L26.6585 50.9253C27.2023 50.3974 27.5126 49.66 27.5126 48.9013V44.4449C27.5126 44.0179 27.1678 43.673 26.7407 43.673L26.7434 43.6757ZM25.693 48.2276V48.3363H23.1917C23.0086 48.3363 22.8601 48.1878 22.8601 48.0048V45.498H25.693V48.2249V48.2276Z" fill="#E21D3D"/>
<path d="M16.0172 43.6771H12.2056H9.6273L7.98008 45.3987C7.71748 45.6745 7.56098 46.0326 7.53976 46.4093C7.53976 46.4412 7.53711 46.473 7.53711 46.5048V49.4492C7.53711 49.8418 7.85541 50.1628 8.25064 50.1628H9.36205V45.5021H12.1976L10.3753 46.9213V48.0062C10.3753 49.1946 11.3408 50.1601 12.5292 50.1601H14.0305C14.4416 50.1601 14.8395 50.001 15.1366 49.7171L16.8581 48.0699V44.518C16.8581 44.0538 16.4814 43.6798 16.0199 43.6798L16.0172 43.6771ZM15.0331 48.3351H12.5265C12.3435 48.3351 12.1949 48.1866 12.1949 48.0035V45.5021H12.7281H15.0331V48.3351Z" fill="#E21D3D"/>
<path d="M18.0625 42.8386V50.1572H19.0466C19.5108 50.1572 19.8848 49.7805 19.8848 49.3189V42.0004H18.9007C18.4365 42.0004 18.0625 42.377 18.0625 42.8386Z" fill="#E21D3D"/>
<path d="M50.1684 48.2604H48.8713C48.7087 48.2604 48.5769 48.3922 48.5769 48.5548V49.8519C48.5769 50.0146 48.7087 50.1464 48.8713 50.1464H50.1684C50.331 50.1464 50.4628 50.0146 50.4628 49.8519V48.5548C50.4628 48.3922 50.331 48.2604 50.1684 48.2604Z" fill="#E21D3D"/>
<path d="M50.4623 43.6783H43.8203V44.7606C43.8203 45.1691 44.1519 45.5007 44.5604 45.5007H47.1599L45.0644 47.6652C44.6532 48.0896 44.0803 48.331 43.4914 48.331H41.6081L40.5286 47.3283L39.2925 48.6573L40.4675 49.7475C40.7434 50.0048 41.1042 50.1454 41.4808 50.1454H43.4914C44.5683 50.1454 45.6187 49.6998 46.3694 48.9252L49.6877 45.4954H50.4623V43.673V43.6783Z" fill="#E21D3D"/>
</svg>
