<svg width="58" height="58" viewBox="0 0 58 58" fill="none" xmlns="http://www.w3.org/2000/svg">
<path fill-rule="evenodd" clip-rule="evenodd" d="M25.7761 32.1157L27.9483 33.423C28.9739 34.0423 30.2875 33.3026 30.2875 32.1101V21.4342C30.2875 20.8953 30.5699 20.3965 31.0309 20.1212L34.5686 17.9941L37.7548 16.0791L39.9558 14.7547C40.9468 14.1583 40.9468 12.7249 39.9558 12.1287L37.6799 10.7584C37.1902 10.466 36.5736 10.466 36.0839 10.7584L34.5686 11.67L29.3081 14.8349L29.285 14.8521L26.7786 16.3601L25.7704 16.9678C25.3094 17.243 25.0271 17.7418 25.0271 18.2808V30.8143C25.0271 31.3532 25.3094 31.852 25.7704 32.1273" fill="#485CC7"/>
<path fill-rule="evenodd" clip-rule="evenodd" d="M36.3704 18.4904V23.8971C36.3704 24.1494 36.5029 24.3846 36.7218 24.5164L40.5303 26.8041C41.0143 27.0965 41.6308 26.7467 41.6308 26.1848V16.197C41.6308 15.6351 41.0143 15.2911 40.5303 15.5779L36.7218 17.8655C36.5029 17.9974 36.3704 18.2324 36.3704 18.4847" fill="#485CC7"/>
<path fill-rule="evenodd" clip-rule="evenodd" d="M18.188 27.5767L20.3602 28.884C21.3857 29.5031 22.6994 28.7636 22.6994 27.5709V16.8951C22.6994 16.3562 22.9817 15.8573 23.4427 15.5822L26.9804 13.455L30.1667 11.54L32.3677 10.2156C33.3587 9.61929 33.3587 8.18591 32.3677 7.58962L30.0918 6.21931C29.602 5.9269 28.9855 5.9269 28.4958 6.21931L26.9804 7.13094L21.7199 10.2958L21.6969 10.313L19.1905 11.8209L18.1822 12.4287C17.7213 12.7039 17.439 13.2027 17.439 13.7417V26.2752C17.439 26.8141 17.7213 27.313 18.1822 27.5881" fill="#485CC7"/>
<path d="M45.7955 48.1491C45.6995 48.0023 45.6487 47.8103 45.6487 47.5844V46.1671C45.6487 46.0373 45.6656 45.9187 45.6939 45.817C45.7278 45.7098 45.7729 45.6138 45.8407 45.5347C45.9085 45.4557 45.9931 45.3936 46.0891 45.3484C46.1851 45.3032 46.2924 45.2806 46.4166 45.2693H48.7147L48.7599 45.2806C48.8503 45.3201 48.935 45.3653 49.0027 45.4162C49.0761 45.4726 49.1383 45.5347 49.1834 45.6081C49.2342 45.6815 49.2681 45.7662 49.2907 45.8622C49.3133 45.9526 49.3246 46.0542 49.3246 46.1671V47.6014C49.3246 47.6973 49.3246 47.7821 49.3077 47.8611C49.2964 47.9345 49.2851 48.0023 49.2625 48.053C49.2286 48.1378 49.1834 48.2111 49.11 48.2676C49.0422 48.3241 48.9632 48.3693 48.8672 48.3975C48.7825 48.4257 48.6809 48.4427 48.5623 48.4596C48.4494 48.4709 48.3252 48.4766 48.184 48.4766H46.2134C46.0214 48.4031 45.8746 48.2959 45.7729 48.1434M37.9469 43.0672H39.3359V42.0169H37.9469V43.0672ZM32.3625 52H36.2303L36.5635 50.9497H32.6956L32.3625 52ZM8.53981 49.7357C8.7205 49.7527 8.92377 49.7583 9.14964 49.7583C10.7871 49.7583 12.4246 49.7583 14.0621 49.7583H14.1355L14.192 49.747L14.2767 49.7301C14.3219 49.7301 14.367 49.7188 14.4065 49.7075C14.4517 49.6962 14.4912 49.6849 14.5364 49.6736C14.5703 49.6623 14.6098 49.6454 14.6437 49.6284C14.6776 49.6058 14.7171 49.5833 14.751 49.5494C14.7849 49.5155 14.8188 49.4816 14.8583 49.4421C14.8921 49.3969 14.9317 49.3518 14.9656 49.2953C14.9994 49.2388 15.0333 49.1824 15.0672 49.109C15.1011 49.0356 15.135 48.9565 15.1632 48.8718H15.389C15.4285 48.9622 15.4737 49.0525 15.5189 49.1372C15.5641 49.2162 15.6092 49.284 15.6544 49.3461C15.6996 49.4026 15.7447 49.4534 15.7956 49.4986C15.8408 49.5438 15.8916 49.5776 15.9367 49.6058C15.9876 49.6341 16.0384 49.6623 16.0892 49.6793C16.14 49.6962 16.1909 49.7131 16.2416 49.7188C16.2981 49.7301 16.3546 49.7357 16.4167 49.7414C16.4788 49.7414 16.5409 49.747 16.603 49.747H17.6928H17.9695C18.0429 49.747 18.105 49.747 18.1614 49.7414C18.2066 49.7414 18.2349 49.7357 18.2518 49.7301H18.2631C18.3139 49.7188 18.3591 49.7075 18.4043 49.6962L18.5398 49.6567C18.5793 49.6454 18.6188 49.6284 18.6583 49.6058C18.6979 49.5833 18.7318 49.5607 18.7713 49.5325C18.8108 49.5042 18.8447 49.4647 18.8842 49.4195C18.9181 49.38 18.9576 49.3348 18.9859 49.284C19.0197 49.2332 19.0536 49.1711 19.0875 49.1033C19.1214 49.0356 19.1553 48.9509 19.1891 48.8662H19.415C19.4545 48.9622 19.4997 49.0525 19.5448 49.1316C19.59 49.2106 19.6296 49.2783 19.6747 49.3348C19.7199 49.3913 19.7651 49.4421 19.8103 49.4873C19.8554 49.5268 19.9006 49.5663 19.9458 49.5945C19.9966 49.6228 20.0474 49.651 20.0982 49.668C20.1491 49.6849 20.1998 49.7019 20.2507 49.7075C20.3072 49.7188 20.3636 49.7244 20.4314 49.7301C20.4935 49.7301 20.5556 49.7357 20.6177 49.7357H21.7413H22.0124C22.0858 49.7357 22.1479 49.7357 22.1988 49.7301C22.2439 49.7301 22.2721 49.7244 22.2891 49.7188H22.3004C22.3456 49.7075 22.3907 49.7019 22.4359 49.6906C22.481 49.6793 22.5206 49.668 22.5658 49.651C22.6053 49.6397 22.6448 49.6171 22.6843 49.5945C22.7239 49.572 22.7577 49.5494 22.7916 49.5212C22.8311 49.4873 22.8707 49.4534 22.9046 49.4082C22.9384 49.3687 22.9779 49.3235 23.0118 49.2727C23.0457 49.2219 23.0796 49.1598 23.1135 49.092C23.1473 49.0243 23.1812 48.9396 23.2151 48.8549H23.441C23.4748 48.9452 23.5144 49.0243 23.5539 49.0977C23.5934 49.1711 23.6329 49.2332 23.6725 49.284C23.712 49.3348 23.7515 49.3856 23.7967 49.4251C23.8362 49.4647 23.8814 49.5042 23.9266 49.5325C23.9717 49.5607 24.0112 49.5889 24.0564 49.6115C24.1016 49.6341 24.1468 49.651 24.1919 49.6623C24.2428 49.6793 24.2936 49.6906 24.35 49.7019C24.4065 49.7131 24.4573 49.7188 24.5138 49.7301H25.1631L32.7182 49.7414H32.9892C33.057 49.7414 33.1191 49.7357 33.1643 49.7301C33.2094 49.7301 33.2377 49.7244 33.2489 49.7188H33.2602C33.3054 49.7075 33.3506 49.7019 33.3958 49.6906C33.4409 49.6793 33.4805 49.668 33.5257 49.651C33.5652 49.6341 33.6047 49.6171 33.6442 49.5945C33.6838 49.572 33.7176 49.5494 33.7515 49.5212C33.7854 49.4929 33.8249 49.459 33.8588 49.4139C33.8927 49.3744 33.9322 49.3235 33.966 49.2727C33.9999 49.2219 34.0338 49.1598 34.0677 49.092C34.1016 49.0243 34.1354 48.9396 34.1637 48.8549H34.3896C34.4234 48.9452 34.4629 49.0299 34.5025 49.1033C34.542 49.1767 34.5815 49.2388 34.621 49.2896C34.6606 49.3461 34.7058 49.3913 34.7453 49.4364C34.7904 49.4816 34.83 49.5155 34.8752 49.5494C34.9203 49.5776 34.9598 49.6058 35.0107 49.6228C35.0559 49.6454 35.101 49.6623 35.1462 49.6736C35.2027 49.6906 35.2535 49.7019 35.3043 49.7132C35.3551 49.7244 35.4116 49.7301 35.4624 49.7414H36.411L37.4839 49.747C37.7097 49.747 37.913 49.7414 38.0993 49.7244C38.2856 49.7075 38.4437 49.6849 38.5792 49.6567C38.7148 49.6228 38.8334 49.572 38.9293 49.4986C39.0254 49.4251 39.1044 49.3348 39.1665 49.2219C39.2286 49.1033 39.2794 48.9565 39.3077 48.7758C39.3416 48.5951 39.3585 48.3749 39.3585 48.1265V43.9706H37.9751V47.5731C37.9751 47.8103 37.9243 48.0023 37.8283 48.1491C37.7266 48.3015 37.5742 48.4031 37.3709 48.4483H37.3427H36.411V48.4596H35.5075C35.4059 48.4201 35.3156 48.3806 35.2422 48.3241C35.1631 48.2676 35.101 48.2055 35.0502 48.1265C35.005 48.053 34.9655 47.9684 34.9429 47.8724C34.9203 47.7764 34.909 47.6747 34.909 47.5618V43.9593H33.52V47.5449C33.52 47.6578 33.5087 47.7538 33.4918 47.8441C33.4692 47.9401 33.4409 48.0192 33.3958 48.0926C33.3506 48.166 33.2885 48.2281 33.2207 48.2789C33.153 48.3298 33.0683 48.3693 32.9723 48.4031H32.9384C30.3636 48.4935 27.7436 48.4427 25.1631 48.4427V48.454H24.5759C24.4799 48.4144 24.3952 48.3693 24.3218 48.3185C24.2484 48.262 24.1863 48.1999 24.1355 48.1265C24.0847 48.053 24.0508 47.9684 24.0282 47.8667C24.0056 47.7764 23.9943 47.6691 23.9943 47.5562V43.9537H22.6053V47.5392C22.6053 47.7594 22.5601 47.9401 22.4641 48.0869C22.3681 48.2337 22.227 48.341 22.0406 48.3975V48.3862C21.86 48.4144 21.6623 48.4257 21.4816 48.4427H21.3405C21.2388 48.454 21.1767 48.454 21.1315 48.454H20.5556C20.4653 48.4144 20.3805 48.3693 20.3072 48.3185C20.2337 48.2676 20.1716 48.1999 20.1208 48.1265C20.0248 47.9797 19.974 47.7933 19.974 47.5562V43.9537H18.585V47.5392C18.585 47.6465 18.5737 47.7425 18.5567 47.8329C18.5398 47.9232 18.5115 48.0079 18.472 48.0756C18.4325 48.1491 18.376 48.2112 18.3083 48.262C18.2462 48.3072 18.1727 48.3467 18.0881 48.3806C18.0711 48.3862 18.0542 48.3975 18.0316 48.4031C18.009 48.4031 17.9864 48.4144 17.9582 48.4144C17.817 48.4257 17.6872 48.437 17.546 48.4427H17.3088C17.1112 48.454 16.891 48.454 16.6256 48.454H16.5861C16.3941 48.3862 16.2473 48.2789 16.1457 48.1265C16.0497 47.9797 15.9989 47.7877 15.9989 47.5618V43.9593H14.6098V47.5449C14.6098 47.7595 14.5646 47.9458 14.4743 48.0869C14.3839 48.2337 14.2428 48.341 14.0621 48.4031C14.0338 48.4144 14 48.4201 13.9605 48.4314C13.9266 48.437 13.8814 48.4427 13.8306 48.4483L13.7007 48.4596V48.4427H9.26256C9.06494 48.3918 8.91248 48.2902 8.81084 48.1378C8.71485 47.991 8.66403 47.799 8.66403 47.5618V42H7.30322V48.1208C7.30322 48.3693 7.32016 48.5838 7.35404 48.7645C7.38228 48.9452 7.4331 49.092 7.4952 49.205C7.55167 49.3179 7.63072 49.4082 7.73236 49.4816C7.83399 49.555 7.95257 49.6115 8.09938 49.6454C8.22925 49.6736 8.38735 49.6962 8.56804 49.7132L8.53981 49.7357ZM46.027 49.7527C46.0891 49.7527 46.1512 49.7583 46.2134 49.7583H49.1609C49.2568 49.7583 49.3528 49.7527 49.4375 49.747C49.5166 49.747 49.59 49.7357 49.6521 49.7301C49.7198 49.7244 49.7763 49.7131 49.8271 49.7019C49.9852 49.6623 50.1207 49.6115 50.2337 49.5438C50.2845 49.5099 50.3353 49.4703 50.3805 49.4251C50.4256 49.38 50.4595 49.3292 50.4934 49.267C50.5273 49.205 50.5612 49.1429 50.5837 49.0694C50.612 48.9961 50.6289 48.9113 50.6459 48.821C50.6628 48.7306 50.6741 48.629 50.6854 48.5161C50.6911 48.4031 50.6967 48.2846 50.6967 48.1491V45.5743C50.6967 45.3201 50.6798 45.0943 50.6402 44.908C50.6063 44.7273 50.5499 44.5805 50.4821 44.4675C50.4143 44.3546 50.324 44.2642 50.2111 44.1965C50.0981 44.1287 49.957 44.0779 49.7989 44.0497H49.7932C49.7311 44.0328 49.6634 44.0271 49.5956 44.0158C49.5279 44.0045 49.4545 43.9989 49.3697 43.9932C49.2851 43.9876 49.2004 43.9819 49.1157 43.9763C49.031 43.9763 48.935 43.9763 48.8277 43.9763H46.1004C45.9762 43.9763 45.8633 43.9763 45.7729 43.9763C45.6769 43.9763 45.5809 43.9819 45.4962 43.9932C45.4115 43.9989 45.3325 44.0102 45.2647 44.0158C45.197 44.0271 45.1349 44.0384 45.084 44.0497H45.0784C44.9259 44.0779 44.8017 44.1287 44.6945 44.1965C44.5871 44.2642 44.5025 44.3546 44.4403 44.4675C44.3726 44.5861 44.3218 44.7329 44.2879 44.9136C44.254 45.0999 44.2371 45.3201 44.2371 45.5686V47.5505C44.2371 47.7707 44.1919 47.9514 44.1015 48.0982C44.0056 48.245 43.8644 48.3523 43.6781 48.4088L43.5764 48.4427C43.2885 48.454 43.0287 48.4483 42.7407 48.4483H42.7125C42.5149 48.3975 42.3624 48.2959 42.2608 48.1434C42.1648 47.9966 42.114 47.8046 42.114 47.5675V42.0057H40.7306V48.1265C40.7306 48.3749 40.7475 48.5895 40.7814 48.7702C40.8153 48.9509 40.8605 49.0977 40.9226 49.2106C40.979 49.3235 41.0581 49.4139 41.1597 49.4873C41.2614 49.5607 41.3799 49.6171 41.5267 49.651C41.6566 49.6793 41.8147 49.7019 41.9954 49.7188C42.1761 49.7357 42.3794 49.7414 42.6052 49.7414C42.944 49.7414 43.2828 49.7414 43.6216 49.7414C43.6894 49.7414 43.7514 49.7414 43.8023 49.7357C43.8418 49.7357 43.87 49.7301 43.8813 49.7244H43.8983C43.9434 49.7131 43.9886 49.7019 44.0338 49.6906C44.0733 49.6793 44.1185 49.668 44.1637 49.651C44.2032 49.6341 44.2427 49.6171 44.2822 49.6002C44.3218 49.5776 44.3613 49.555 44.3952 49.5212C44.4347 49.4929 44.4686 49.459 44.5025 49.4139C44.5363 49.3744 44.5759 49.3292 44.6097 49.2727C44.6436 49.2163 44.6775 49.1542 44.7114 49.0864C44.7453 49.013 44.7791 48.9339 44.8074 48.8492H45.0333C45.0728 48.9452 45.1179 49.0356 45.1575 49.1146C45.197 49.1937 45.2422 49.2614 45.2873 49.3235C45.3325 49.3856 45.3777 49.4364 45.4228 49.4816C45.468 49.5268 45.5132 49.5607 45.5584 49.5889C45.6092 49.6171 45.66 49.6454 45.7108 49.6623C45.7616 49.6793 45.8124 49.6962 45.8633 49.7019C45.9197 49.7131 45.9762 49.7188 46.0383 49.7244L46.027 49.7527Z" fill="#485CC7"/>
</svg>
